<svg width="1234" height="1003" viewBox="0 0 1234 1003" fill="none" xmlns="http://www.w3.org/2000/svg">
<g style="mix-blend-mode:plus-darker" opacity="0.4" filter="url(#filter0_d_127_1824)">
<path fill-rule="evenodd" clip-rule="evenodd" d="M1157.75 993.252C1157.13 993.692 1156.5 994.391 1155.89 994.74H1159.54C1158.95 994.251 1158.36 993.751 1157.75 993.252ZM634.638 994.74H799.873C796.358 990.146 793.029 985.533 789.931 980.859C787.693 978.962 785.512 977.024 783.354 975.047C786.66 971.872 787.286 968.476 791.927 968.406C789.931 965.071 793.771 962.664 794.931 959.858C803.098 969.145 811.218 981.988 816.589 994.74H1154.6C1154.6 994.74 1154.56 994.72 1154.55 994.71C1152.86 990.037 1148.65 985.872 1146.87 983.605C1147.29 984.364 1147.09 985.173 1146.03 985.902C1140.68 979.112 1132.93 972.65 1127.81 966.139C1122.77 959.518 1120.27 952.948 1125.21 946.187C1125.35 948.194 1126.13 949.003 1128.29 947.905C1127.37 944.389 1126.21 937.858 1131.97 937.129C1127.15 933.874 1129.48 926.744 1134.08 926.314C1134.96 925.036 1134.6 923.748 1136.64 922.55C1134.94 919.324 1135.82 920.253 1132.81 920.053C1134.01 919.074 1134.3 918.056 1134.56 917.027C1135.78 918.235 1137.01 919.913 1138.45 917.976C1132.71 913.162 1141.17 913.562 1141.28 909.577C1138.01 906.871 1134.3 912.164 1131.19 906.801C1134.74 907.021 1134.18 903.646 1137.01 901.648C1137.23 902.337 1137.79 906.571 1139.98 904.864C1138.16 902.707 1141.87 900.839 1141.91 898.762C1140.68 897.294 1139.42 896.426 1138.13 896.266C1143.83 896.525 1134.23 892.181 1140.04 890.204C1142.73 897.484 1148.33 900.73 1154.89 904.714C1151.22 911.804 1162.02 919.444 1158.41 926.534C1157.16 925.945 1155.86 925.505 1154.55 925.605C1155.56 927.962 1153.52 930.259 1153.41 932.556C1162.53 940.405 1150.48 953.537 1158.53 963.723C1163.14 959.858 1167.14 963.723 1169.47 968.626C1173.51 964.821 1174.99 968.326 1177.25 971.901C1183.16 963.074 1192.29 970.843 1195.63 962.185C1195.59 964.192 1197.4 966.099 1199.48 964.562C1200.23 962.774 1195.59 960.917 1198.85 959.159C1200.19 958.17 1201.41 960.367 1202.7 961.536C1210.76 953.127 1201.52 944.549 1204.34 936.141C1219.51 943.421 1215.43 958.33 1224.22 966.789C1224.8 967.348 1225.44 967.877 1226.14 968.366C1226.32 968.506 1226.52 968.636 1226.72 968.766C1226.26 969.195 1225.82 969.615 1225.38 970.044H1225.37C1224.74 970.653 1224.15 971.242 1223.53 971.842C1223.74 972.251 1223.97 972.62 1224.19 972.97C1225.84 975.477 1227.83 976.635 1230 977.094V773.844C1229.54 772.526 1228.9 771.258 1227.87 770.429C1218.67 774.963 1220.89 762.29 1215.48 757.966C1213.42 760.093 1212.17 755.53 1210.01 758.515C1207.65 760.932 1210.28 763.528 1207.65 765.935C1197.59 766.115 1197.07 757.617 1190.05 750.926C1191.02 749.608 1190.69 748.769 1192.62 748.799C1190.39 747.451 1183.6 743.386 1188.2 740.36C1193.24 742.877 1189.05 742.008 1190.77 744.964C1195.25 743.975 1195.51 740.87 1194.74 737.694C1198.48 738.643 1202.79 734.848 1206.35 737.474C1205.2 735.946 1204.64 734.399 1205.34 732.941C1207.75 731.922 1209.79 734.339 1212.31 732.511C1208.79 730.454 1206.23 726.41 1205.34 720.997C1200.81 724.762 1198.3 718.521 1197.51 716.793C1200.74 715.814 1203.04 717.712 1203.82 720.917C1206.49 716.284 1207.6 723.114 1210.09 719.759C1208.79 715.595 1190.91 715.654 1195.33 705.429C1199.77 713.617 1205.76 711.061 1210.95 713.797C1216.98 710.731 1218.06 707.695 1217.43 704.55C1216.61 705.219 1215.84 705.868 1215.02 706.527C1213.28 705.179 1213.92 703.981 1213.28 702.682C1214.43 702.543 1215.62 702.393 1214.99 701.304C1217.26 699.766 1215.19 703.221 1217.29 704.26C1217.31 704.27 1217.34 704.28 1217.37 704.29V704.27C1216.46 700.525 1213.25 696.571 1213.25 692.277C1206.53 686.505 1203.18 672.584 1195.95 669.728C1196.93 672.993 1202.9 677.108 1198.74 681.761C1193.06 683.549 1197.07 675.43 1192.43 677.657C1194.13 682.011 1197.37 681.861 1195.03 685.995C1194.18 684.967 1192.91 686.505 1191.99 685.805C1190.5 682.081 1190.01 677.038 1192.36 675.15C1190.79 676.089 1192.95 670.936 1190.05 673.093C1190.27 674.851 1188.2 676.458 1186.97 678.096C1190.39 681.781 1191.16 685.296 1188.49 688.632C1179.16 686.475 1180.27 677.916 1170.84 677.807C1172.17 675.659 1169.81 669.298 1166.84 669.258C1168.05 670.616 1167.43 671.815 1165.46 672.913C1160 658.333 1154.23 651.972 1147.09 640.608C1152 641.566 1151.95 644.193 1156.08 646.64C1156.26 643.903 1154.7 641.047 1156.7 638.491C1160.68 639.769 1163.97 640.827 1166.69 638.571C1170.84 642.475 1176.22 642.845 1177.86 649.166C1180.37 644.512 1175.36 642.395 1172.47 640.528C1173.36 639.879 1173.03 639.08 1173.61 638.391C1181.38 638.571 1183.9 633.917 1190.13 627.046C1198.85 633.408 1203.04 642.006 1207.6 650.364C1212.21 658.703 1216.87 667.021 1226 672.953C1227.73 675.799 1228.71 679.305 1230 682.999V666.233C1226.28 662.278 1222.48 658.483 1218.84 654.678C1215.73 651.423 1212.76 648.137 1209.98 644.732C1207.26 641.277 1204.82 637.682 1202.67 633.857C1198.18 632.249 1190.57 626.307 1189.36 620.765C1189.27 620.375 1189.21 619.996 1189.2 619.617C1189.09 617.5 1190.03 615.492 1192.58 613.865C1190.54 608.852 1187.94 604.258 1185.01 599.834C1182.08 595.41 1178.77 591.216 1175.58 586.892C1169.09 578.314 1162.2 569.725 1156.7 559.679C1147.77 556.793 1142.84 548.604 1140.61 541.734C1140.94 542.762 1137.27 541.484 1137.37 539.107C1137.79 530.669 1146.03 537.929 1149.67 542.832C1147.87 539.617 1156.34 539.247 1158.94 538.558C1167.92 545.798 1173.07 553.138 1181.27 559.09C1182.45 561.397 1180.37 563.444 1182.11 565.821C1188.12 566.58 1185.64 574.079 1189.54 577.575C1191.77 579.552 1196.85 578.413 1198.82 580.58C1200.93 582.987 1199.04 588.07 1200.77 590.227C1201.82 591.505 1205.15 592.604 1206.23 593.552C1206.13 593.433 1204.04 594.351 1203.85 594.092C1205.71 596.429 1209.08 595.67 1210.84 597.527C1211.13 597.867 1208.76 600.044 1208.79 600.313C1209.54 604.258 1216.91 604.188 1219.7 606.954C1218.92 611.158 1213.62 607.403 1215.92 611.088C1219.06 609.011 1221.17 612.656 1224 612.367C1223.61 613.116 1223.42 613.805 1223.41 614.454C1223.25 618.189 1228.33 620.336 1227.24 622.343C1227.03 622.742 1226.57 623.142 1225.74 623.551C1227 624.47 1228.45 625.529 1230 626.707V571.014C1228.85 570.714 1227.78 570.245 1226.89 569.366C1223.11 565.561 1226.72 561.027 1221.17 556.573C1218.18 561.317 1216.61 551.021 1212.65 550.722C1218.48 559.499 1201.37 544.37 1207.43 540.046C1209.08 542.872 1211.61 541.554 1213.62 542.792C1210.06 538.778 1212.84 539.837 1215.77 536.401C1212.21 533.665 1214.4 531.428 1212.9 528.882C1210.31 531.318 1212.95 534.204 1211.9 536.771C1211.13 535.672 1210.2 535.383 1209.24 535.083C1208.98 532.497 1212.61 528.033 1207.53 529.091C1209.15 528.033 1210.2 526.904 1210.57 525.736C1220.51 535.253 1225.44 539.157 1230 549.244V510.267C1228.76 507.891 1228.24 505.004 1227.87 502.718C1228.7 502.638 1229.4 502.748 1230 502.947V501.25C1226.91 500.471 1224.07 499.312 1222.67 495.807C1219.82 496.207 1220.73 500.191 1219.03 498.364C1218.45 495.228 1217.43 494.888 1214.65 494.379C1217.81 492.262 1216.43 489.706 1216.43 487.299C1208.6 483.424 1210.57 473.148 1200.93 471.221C1197.76 464.121 1192.73 456.192 1187.16 449.072C1181.66 441.881 1175.85 435.37 1170.58 431.496C1172.39 429.299 1168.61 426.383 1172.54 424.475C1166.06 422.139 1170.13 415.897 1163.72 415.348C1164.27 416.407 1164.68 417.425 1162.9 418.154C1160.83 416.776 1160.9 416.446 1158.19 413.191C1159.61 412.172 1161.52 411.224 1159.93 409.796C1152.17 411.074 1153.77 400.918 1152.39 396.414C1150.4 397.333 1151.22 398.691 1150.62 399.819C1148.14 396.963 1143.76 391.481 1148.21 387.756C1150.55 389.184 1145.96 393.129 1149.84 392.41C1149.37 391.131 1151.33 390.173 1151.62 389.034C1140.61 383.592 1134.6 370.33 1131.78 364.148C1130.74 361.892 1126.85 362.83 1126.33 361.852C1124.96 359.185 1127.81 354.731 1123.58 351.216C1124.36 351.875 1122.95 350.018 1121.61 347.931C1121.1 347.132 1113.9 339.712 1116.61 335.338C1118.8 333.571 1121.79 340.911 1121.94 337.735C1119.83 334.999 1118.08 334.669 1117.99 331.194C1113.38 334.749 1111.38 329.227 1112.61 326.6C1115.61 328.348 1118.02 331.923 1121.87 331.154C1117.27 327 1107.33 319.909 1116.35 315.635C1115.35 316.185 1114.28 314.906 1115.35 313.988C1119.76 315.925 1121.02 313.398 1125.06 314.966C1117.72 312.12 1116.15 306.608 1114.24 301.485C1112.3 296.382 1110.19 291.548 1101.33 290.16C1103.06 288.962 1104 289.911 1105.69 288.812C1104.33 286.176 1101.28 288.153 1100.42 284.099C1102.36 283.25 1102.06 281.982 1103.84 281.113C1102.25 279.165 1100.77 276.869 1098.58 276.389C1101.11 279.815 1099.95 282.491 1097.03 284.858C1095.34 278.546 1089.33 278.247 1091.38 270.537C1092.3 274.382 1095.73 271.416 1096.64 275.261C1098.5 273.164 1102.7 271.596 1100.61 268.75C1099.09 269.409 1097.2 271.027 1096.25 270.068C1100.99 268.201 1096.17 256.696 1093.6 252.053C1089.42 253.151 1091.98 255.598 1088.67 256.876C1089.23 255.308 1088.08 253.401 1086.85 251.394C1090.19 251.873 1089.59 251.474 1093.2 249.097C1092.64 245.951 1089.33 249.676 1088.45 247.339C1092.23 245.472 1088.12 241.857 1090.67 239.74C1085.4 237.842 1087.56 235.326 1090.37 234.557C1085.96 232.799 1086.23 231.082 1081.84 230.463C1083.07 228.046 1083.14 229.873 1085.81 228.415C1082.85 225.38 1083.51 225.489 1083.65 222.094C1081.84 221.395 1079.7 221.505 1077.91 220.806C1079.13 218.289 1076.73 217.091 1080.44 218.429C1077.47 208.283 1064.49 210.949 1064.44 205.277C1056.83 208.423 1057.74 203.09 1058.58 198.666C1055.73 198.666 1055.95 202.731 1054.58 200.644C1055.61 197.208 1054.28 195.391 1051.69 192.525C1054.5 190.228 1055.47 192.345 1057.55 191.756C1054.94 190.697 1055.44 187.092 1053.94 187.202C1054.02 188.7 1053.42 190.048 1052.25 191.207C1051.24 189.209 1049.24 189.579 1048.64 186.613C1049.64 186.104 1050.64 185.634 1051.65 185.145C1042.48 180.651 1042.37 168.188 1036.21 167.25C1033.96 164.953 1037.92 164.244 1037.5 162.416C1036.11 163.045 1035.51 163.884 1034.92 164.693C1031.54 163.675 1034.43 149.894 1031.57 157.823C1030.01 153.549 1033.4 150.513 1029.87 149.155C1030.53 151.312 1028.12 152.45 1026.82 150.583C1028.9 151.132 1030.35 149.744 1029.01 147.447C1026.9 147.447 1025.53 145.759 1023.93 144.561C1027.8 145.579 1023.86 139.768 1022.45 138.929C1022.56 139.698 1023.24 140.656 1022.26 141.126C1021.04 139.588 1016.71 135.903 1018.52 133.376C1020.19 133.276 1020.27 136.632 1022.18 135.903C1022.6 132.178 1018.99 132.687 1016.84 129.941C1022.26 125.877 1008.17 123.44 1015.33 119.126C1014.77 127.784 1029.91 126.326 1023.82 134.105C1029.62 131.629 1027.56 136.083 1031.17 139.078C1033.87 136.632 1034.28 139.298 1036.03 138.889C1034.95 134.585 1033.72 136.991 1032.37 136.412C1033.06 135.094 1031.12 133.117 1034.14 132.468C1034.77 133.416 1035.14 134.944 1036.4 134.545C1033.87 131.409 1034.26 129.032 1036.55 127.195C1032.06 123.8 1033.4 119.376 1027.28 110.608C1024.76 109.809 1024.67 113.204 1022.45 110.688C1022.01 97.3859 1008.35 91.0646 1006.65 81.348C1002.75 80.9086 1001.5 85.4723 999.305 81.3879C999.781 78.6018 1002.12 78.3421 1005.05 77.8728C1001.24 74.767 1000.22 71.2619 999.665 67.527C999.154 63.7622 998.934 59.7777 996.521 55.6933C986.197 55.6933 989.584 40.1747 980.304 37.6382C983.505 41.1134 985.802 46.3362 983.123 49.8813C977.972 48.1237 972.369 38.2673 979.944 36.7594C974.179 33.4439 980.385 26.174 973.332 27.0827C979.422 23.5076 975.176 13.5613 970.699 8.6381C971.372 9.35711 971.372 6.87054 970.328 4.68355C969.62 3.18561 968.924 1.60778 968.228 0H932.847C933.937 2.18699 934.552 3.55511 937.197 5.92184C935.608 7.53962 932.638 4.5737 933.009 7.53962C939.088 10.0861 930.446 21.4505 937.8 25.395C936.165 23.947 937.417 19.8227 938.798 21.8998C939.83 24.0569 938.276 25.2952 938.531 27.2025C947.022 27.8516 943.102 36.9891 948.554 39.8751C948.078 42.6513 946.512 43.1606 945.584 44.1792C949.667 44.289 954.238 52.1082 954.679 54.0855C951.593 55.8331 952.15 50.3207 949.667 50.9099C954.191 59.568 959.017 61.0959 962.683 64.3514C963.878 66.2588 960.131 66.5483 960.711 68.2959C964.574 64.9805 968.437 71.3018 971.07 75.4561C967.323 76.6744 965.769 77.653 964.539 77.1837C965.316 75.7157 963.17 72.9395 961.233 72.2804C960.316 75.6758 956.384 71.182 953.936 72.2006C953.716 70.1234 954.748 69.6541 956.639 70.0236C951.442 64.4313 950.63 55.1041 945.433 49.4819C946.698 49.1223 948.438 50.1409 948.519 48.2436C945.433 51.0896 946.582 45.4674 944.25 46.8055C943.322 50.1809 938.972 46.5259 937.533 45.3176C939.471 45.727 940.468 45.2377 940.248 43.2005C933.009 43.7098 938.09 36.1902 933.415 35.4412C934.088 32.7549 937.417 35.9305 935.828 32.4154L931.675 34.0631C929.854 30.9873 925.701 21.75 924.471 19.1137C924.065 16.6371 920.319 23.6474 919.588 18.9339C924.553 17.7655 913.567 9.69664 920.423 6.1016C918.335 3.90462 917.233 1.90737 916.491 0H905.517C907.141 3.41529 909.078 6.96042 911.642 10.5355C915.841 8.11882 908.927 6.51103 911.154 3.4153C914.762 2.41667 914.901 8.00897 916.537 10.7552C913.451 14.0107 910.864 11.4043 907.152 14.3303C905.238 8.82785 902.825 4.44388 900.888 0H668.372C669.103 4.83334 669.033 9.57681 668.244 12.8723C671.469 20.5117 673.801 18.7841 676.434 25.8844C675.912 23.6474 678.035 18.3148 675.959 18.0951C679.879 16.8967 680.993 21.8998 683.568 29.02C683.522 28.8802 682.13 28.4608 681.782 27.562C682.292 30.1585 683.8 33.0545 685.668 36.1802C685.68 36.2101 685.703 36.2401 685.726 36.28C687.605 39.4257 689.844 42.8111 691.793 46.3661C692.048 46.8155 692.292 47.2649 692.524 47.7243C696.282 54.9044 698.579 62.7037 694.345 70.5728C692.953 66.3686 691.166 62.9333 688.533 61.3255C691.097 63.0332 690.343 76.225 697.361 75.1265C699.113 78.0525 697.697 79.6603 696.213 81.2681C693.649 81.8573 691.062 82.4864 690.424 78.8514C688.092 79.3307 691.677 82.2867 689.728 82.9158C689.09 81.4478 688.266 80.4692 687.35 79.6203C686.039 74.807 686.376 70.5928 684.009 65.2302C683.568 66.3287 683.336 67.6069 683.336 69.1448C681.631 64.8207 678.812 60.6665 675.912 56.5721C671.434 49.9512 666.736 43.5001 665.901 37.0689C665.878 36.9891 665.878 36.9391 665.866 36.8792C665.855 36.8792 665.855 36.8592 665.843 36.8592C664.845 36.4897 664.196 35.8406 663.685 35.0917C664.3 35.3014 664.973 35.4212 665.611 35.3413C665.309 31.8362 663.268 31.8661 661.597 31.0672C662.189 30.8475 662.491 29.8289 661.226 30.0486C661.11 30.2983 661.052 30.5579 660.971 30.8076C660.716 30.7377 660.379 30.7776 659.973 30.9474C660.518 29.4594 660.159 23.5076 658.303 23.7673C656.748 25.0355 660.229 28.3609 658.141 29.4195C656.888 29.6791 656.11 28.9501 655.298 28.2611C655.554 27.7518 655.693 27.3423 655.855 26.9729C656.331 26.174 656.215 25.435 655.774 24.8857C655.774 24.8458 655.693 24.7859 655.67 24.7459L655.635 24.706C655.113 24.0569 654.138 23.5076 653.001 22.4491C653.698 21.091 654.336 19.7428 654.95 18.3547C650.995 12.8323 650.31 10.0861 647.085 4.49381C648.501 3.92459 649.579 4.10435 650.612 4.31406C649.301 2.95593 648.489 1.53788 648.408 0H108.391C107.927 0.209711 107.405 0.369491 106.837 0.489326C107.324 7.20008 108.495 13.821 110.027 20.332C111.546 26.863 113.437 33.3241 115.711 39.7952C120.073 52.7374 124.863 65.8493 127.868 79.9898C136.174 87.2998 138.784 99.0636 139.735 108.021C139.596 106.703 143.087 109.699 142.531 112.395C140.559 122.092 133.32 110.218 130.838 102.858C131.835 107.432 123.344 104.216 120.595 103.857C113.356 91.2743 109.992 80.2495 103.194 69.4344C102.579 66.1389 105.131 64.7608 103.937 61.1358C98.0784 57.381 102.417 49.8114 99.3776 43.8896C97.6376 40.5242 92.1042 39.4257 90.8862 35.8906C89.5058 31.986 92.893 27.0028 91.7794 23.6075C91.1414 21.6102 88.1717 18.6443 87.3945 16.9566C87.4757 17.1464 89.7726 17.1464 89.8886 17.5059C88.7749 13.8509 85.2485 13.0121 84.0536 9.98625C83.868 9.437 86.8377 8.11882 86.8725 7.78927C87.1393 4.90325 84.7728 2.45662 82.3948 0H49.1251C50.8884 8.708 51.944 16.9866 55.5749 19.9226C51.712 21.6402 48.3363 16.0179 49.6936 12.2831C42.5826 15.3489 50.4128 20.7215 52.0484 23.6874C51.9324 23.5176 50.1692 24.4363 49.9488 24.3465C50.8768 25.9443 52.1528 27.0727 53.51 28.0813C55.9925 29.9288 58.7534 31.3868 60.099 34.6423C62.8019 41.0734 57.6397 44.7683 62.2915 52.8472C66.4328 48.673 65.5743 61.7649 69.5416 64.0218C65.7368 50.7301 79.4599 77.1038 72.3373 79.3707C71.3397 75.2064 68.4396 75.536 66.688 73.0494C69.3676 79.6203 66.7692 76.954 63.0223 79.7002C63.4863 80.4891 63.8111 81.1982 64.0315 81.8473C64.9595 84.5536 64.0431 86.1613 63.9851 88.2684C63.9619 88.8576 64.0083 89.4868 64.1823 90.1858C64.5767 89.9761 64.9015 89.7165 65.1567 89.4169C65.4931 89.0174 65.7252 88.548 65.876 88.0288C66.5024 85.8717 65.8296 82.9258 66.9896 81.0883C67.5116 82.766 68.4048 83.5649 69.2864 84.3738C69.0544 86.7406 66.4908 89.307 67.1752 90.9747C67.1984 91.0247 67.2216 91.0746 67.2448 91.1145C67.5464 91.6738 68.2656 92.1231 69.6228 92.4127C67.732 92.922 66.4328 93.7709 65.7948 95.0491C63.9155 91.1245 62.2567 87.7392 60.795 84.6434C60.7834 84.6434 60.7834 84.6334 60.7834 84.6334C58.5214 79.9 56.7001 75.8655 55.2269 71.7312C53.0112 65.5198 51.6076 59.0786 50.668 49.7115C44.369 40.1048 46.9907 27.1426 39.2765 17.3561C39.2765 17.3561 39.2765 17.3461 39.2649 17.3461C38.8589 16.8168 38.4181 16.3075 37.9425 15.7982C38.3253 15.6584 38.5341 15.4088 38.6501 15.0992C39.1373 13.801 37.9193 11.4143 40.0189 11.1447C38.1397 7.68941 37.0608 3.88465 36.3648 0H4C4 0.0798899 4.0116 0.15978 4.0348 0.229684C5.21803 1.76756 8.18771 -0.798898 9.08093 1.46798C7.63089 3.69491 7.12048 18.2049 9.60294 10.8251C10.2294 16.3874 10.7166 17.3661 12.7118 24.8458C14.3823 24.5961 16.5051 23.218 17.3519 24.8258C18.57 35.8207 21.8064 45.4674 25.0313 54.7746C28.3374 64.0618 31.8987 72.9496 33.3835 82.5463C35.3904 82.4465 35.4948 79.85 36.562 81.5277C37.2 88.9775 37.606 95.159 43.3946 98.4444C41.9446 98.9537 40.8657 98.6341 39.7985 98.2647C43.441 102.679 43.2206 109.959 43.0582 115.032C37.722 113.024 39.2069 105.465 31.9335 106.373C35.4252 114.772 45.4362 115.571 46.7703 126.136C49.7399 127.015 49.6703 121.613 51.0044 124.678C50.9696 128.883 51.7816 129.801 54.5541 131.729C50.9348 132.897 51.9324 136.672 51.5264 139.658C58.9854 148.066 55.2385 159.94 64.8783 166.74C66.9548 177.006 70.8525 189.169 75.423 200.574C80.0863 211.898 85.724 222.354 90.7354 229.364C88.6125 231.401 92.255 236.564 87.9165 237.443C94.4475 242.925 89.5522 249.237 96.1411 252.422C95.7003 250.884 95.3291 249.417 97.3011 249.167C99.308 251.733 99.2268 252.123 101.686 257.246C100.085 258.015 98.0088 258.484 99.5284 260.901C107.765 262.139 104.83 274.492 106.245 280.663C108.437 280.194 107.614 278.207 108.321 277.009C110.804 281.462 115.154 289.871 110.247 293.126C107.834 290.49 112.915 287.135 108.762 286.685C109.215 288.493 107.057 289.002 106.686 290.35C118.077 301.055 123.761 319.909 126.429 328.747C127.427 332.003 131.545 332.043 132.032 333.471C133.39 337.276 130.014 342.169 134.526 347.831C133.877 347.082 135.35 349.758 136.777 352.684C137.334 353.843 145.083 365.367 142.229 370.23C139.897 371.858 136.626 361.562 136.51 365.616C138.784 369.741 140.64 370.66 140.779 375.153C145.64 371.898 147.832 379.497 146.568 382.573C143.343 379.467 140.733 374.215 136.673 374.095C141.568 380.746 152.136 392.479 142.902 395.675C143.9 395.485 144.92 397.293 143.818 398.102C139.109 394.367 137.775 397.293 133.471 394.117C141.336 399.889 143.041 407.459 145.234 414.659C147.414 421.849 150.245 428.54 159.804 432.524C158.029 433.693 156.95 432.225 155.21 433.213C156.88 436.938 160.001 435.111 161.184 440.563C159.142 441.182 159.583 442.94 157.692 443.629C159.548 446.515 161.335 449.87 163.666 450.969C160.743 445.926 161.776 442.71 164.745 440.334C166.973 448.932 173.387 450.609 171.798 460.176C170.522 454.993 167.077 458.059 165.824 452.876C164.003 455.133 159.63 456.272 162.031 460.466C163.632 459.957 165.522 458.289 166.636 459.747C161.694 461.095 167.715 477.243 170.824 483.934C175.209 483.384 172.274 479.619 175.684 478.641C175.243 480.568 176.508 483.384 178.132 486.2C174.466 484.962 175.162 485.571 171.543 487.948C172.541 492.142 175.65 487.948 176.914 491.164C173.016 492.891 177.958 498.324 175.464 500.621C181.438 504.136 179.396 506.982 176.462 507.491C181.484 510.607 181.403 512.834 186.229 514.402C185.231 517.328 184.895 514.911 182.215 516.379C185.811 520.913 185.069 520.623 185.405 525.077C187.447 526.315 189.755 526.505 191.786 527.743C190.823 530.849 193.537 532.866 189.419 530.409C194.013 544.33 207.446 542.912 208.339 550.292C216.053 547.286 216.019 554.047 215.903 559.679C219.023 560.079 218.025 554.786 219.881 557.632C219.383 561.946 221.134 564.463 224.464 568.527C221.83 571.153 220.438 568.307 218.304 568.817C221.32 570.524 221.471 575.178 223.025 575.238C222.689 573.31 223.025 571.623 224.104 570.195C225.542 572.941 227.63 572.721 228.814 576.596C227.816 577.105 226.853 577.655 225.844 578.164C236.493 585.074 238.906 601.332 245.692 603.199C248.557 606.405 244.428 606.954 245.251 609.401C246.62 608.712 247.096 607.693 247.548 606.664C251.33 608.302 251.446 625.778 252.699 615.802C255.344 621.394 252.443 625.119 256.562 627.126C255.344 624.32 257.675 623.042 259.496 625.519C257.165 624.68 255.889 626.357 257.861 629.423C260.169 629.583 262.025 631.8 264.021 633.527C259.647 631.91 265.25 639.729 266.944 640.867C266.654 639.879 265.691 638.601 266.619 638.051C268.324 640.098 273.811 645.142 272.442 648.287C270.691 648.357 269.809 643.963 267.918 644.812C268.359 649.635 272.106 649.166 275.041 652.811C270.25 657.854 285.829 661.659 279.263 666.951C277.825 655.737 262.025 656.835 266.619 647.009C261.004 649.855 262.13 644.193 257.559 640.058C255.228 643.094 254.195 639.589 252.397 639.959C254.636 645.651 255.344 642.625 256.944 643.414C256.48 645.062 259.009 647.808 255.97 648.457C255.042 647.219 254.299 645.141 253.035 645.581C256.48 649.855 256.678 652.931 254.705 655.228C260.343 659.941 260.007 665.713 268.695 677.547C271.665 678.685 270.772 674.301 273.881 677.587C278.266 694.793 294.773 703.271 299.401 715.874C303.682 716.463 303.67 710.551 307.174 715.854C307.498 719.429 305.039 719.799 302.116 720.408C307.127 724.432 309.122 728.996 310.944 733.829C312.811 738.613 314.401 743.726 318.368 748.919C329.307 748.589 331.082 768.602 341.742 771.458C337.184 767.154 332.938 760.533 334.55 755.889C340.629 757.936 349.828 770.219 342.404 772.546C349.573 776.501 345.629 786.227 352.647 784.639C347.415 789.682 355.906 801.926 362.553 807.817C361.591 806.939 362.553 810.114 364.514 812.781C374.827 826.771 385 845.635 398.793 856.011C397.424 857.1 395.498 858.018 397.493 860.026C399.941 858.568 402.4 857.04 404.372 860.135C402.841 862.183 399.315 859.077 402.319 863.061C404.593 863.061 407.365 864.589 406.959 867.815C409.929 869.263 408.259 864.929 410.451 867.006C411.704 869.083 412.342 870.99 411.565 872.558C410.033 873.437 408.955 870.321 407.319 872.269C412.04 874.855 411.889 876.363 416.785 880.058C420.056 878.111 414.198 876.463 417.504 873.247C424.395 877.052 430.554 881.766 436.192 887.028C441.83 892.321 447.212 898.033 452.154 904.055C462.119 916.068 470.981 929.081 480.447 940.345C478.974 943.151 474.287 934.853 475.447 939.127C485.273 947.505 489.797 947.605 491.131 958.24C494.031 962.045 497.291 959.888 500.33 961.166C500.539 963.343 503.056 965.65 505.771 968.197C506.316 968.706 506.873 969.225 507.406 969.754C509.865 972.131 512.151 974.718 512.754 977.594C512.94 978.423 512.974 979.281 512.835 980.16C512.777 980.48 512.708 980.799 512.603 981.129C516.106 979.371 516.141 985.613 519.981 986.282C520.225 986.332 520.491 986.352 520.77 986.342C520.654 986.441 520.538 986.531 520.433 986.631C517.742 989.028 519.749 990.176 522.231 990.116C520.225 991.934 520.48 993.372 521.303 994.74H529.551M631.46 994.74H633.432H631.46ZM595.174 994.74H628.072H595.174ZM542 994.74C541.571 994.311 543.518 995.12 543.1 994.74C542.857 994.52 542.613 994.321 542.37 994.121C541.708 994.281 541.337 994.49 541.151 994.74C540.177 995.958 543.509 992.458 540.354 993.217C539.913 991.989 537.845 996.038 537.068 994.74C536.685 994.101 536.639 993.522 537.312 993.102C538.773 992.373 540.107 993.652 541.557 993.102C539.063 989.727 536.465 986.432 533.82 983.146C533.542 982.797 533.252 982.437 532.962 982.088C532.776 981.848 532.59 981.618 532.393 981.378C531.361 980.09 530.328 978.792 529.296 977.494C528.298 976.246 527.301 974.997 526.303 973.739C525.189 972.341 524.064 970.923 522.927 969.495C521.373 967.547 519.795 965.57 518.206 963.543C516.814 961.745 515.41 959.928 513.995 958.051C510.399 953.287 506.78 948.244 503.184 942.762C504.297 939.936 501.27 936.36 497.523 932.676C493.73 929.021 489.472 925.136 487.802 922C483.533 913.702 472.431 902.927 464.01 892.91C460.646 888.926 457.56 884.732 454.555 880.487C452.34 877.192 450.147 873.926 447.99 870.701H447.978C447.317 869.712 446.644 868.724 445.983 867.735C442.433 862.552 438.814 857.599 434.835 853.255C434.638 853.035 434.44 852.826 434.232 852.616C433.176 851.467 432.074 850.369 430.926 849.31C429.696 848.162 428.431 847.083 427.109 846.065C427.295 845.915 427.492 845.775 427.677 845.635C428.93 844.707 430.148 843.798 428.397 842.05C427.596 842.45 426.773 843.169 425.972 843.578C425.265 843.948 424.58 844.068 423.977 843.478C423.13 841.831 422.492 840.233 422.051 838.685C421.042 835.22 421.065 832.014 422.167 829.108C419.569 829.268 417.086 828.599 414.592 827.91C415.648 829.957 420.903 831.485 419.012 834.311C418.594 833.892 418.154 833.662 417.701 833.502C416.24 832.993 414.673 833.222 413.49 830.207C413.571 829.967 413.664 829.727 413.734 829.508C416.298 822.208 414.152 826.701 411.449 819.142C412.597 821.039 413.978 821.439 415.451 821.149C409.256 818.153 409.291 807.268 403.096 804.482C405.289 811.093 407.4 812.271 408.143 818.193C403.769 813 403.549 811.293 398.433 807.518C399.466 805.361 403.688 808.726 402.18 805.111C394.86 802.555 399.605 787.565 390.487 783.361C392.749 785.049 392.935 790.272 390.742 787.795C388.816 785.189 390 783.521 389.048 781.184C379.919 781.104 380.464 769.56 374.026 766.195C373.562 762.66 375.059 761.911 375.685 760.533C371.381 760.672 364.038 751.106 362.925 748.659C365.558 746.292 366.811 753.263 369.224 752.354C361.672 741.758 356.092 740.071 351.092 736.126C349.236 733.789 353.064 733.24 351.87 731.083C348.865 735.397 342.74 727.608 338.552 722.465C342.148 720.817 343.483 719.539 344.967 720.118C344.596 721.956 347.786 725.391 350.048 726.11C349.932 721.836 355.535 727.278 357.809 725.92C358.702 728.527 357.809 729.136 355.651 728.786C362.959 735.537 366.811 747.151 374.084 753.882C372.866 754.391 370.72 753.263 371.277 755.629C373.527 751.845 374.2 758.995 376.172 757.167C376.056 752.863 381.775 757.167 383.631 758.555C381.474 758.186 380.58 758.815 381.508 761.441C388.816 760.303 386.079 770.069 391.334 770.509C391.601 773.864 386.96 770.289 389.93 774.453L393.677 772.077C396.681 775.652 404.465 786.696 406.704 789.762C408.038 792.758 409.337 783.771 411.855 789.503C407.099 791.51 421.506 800.248 415.752 805.441C425.392 813.41 423.617 820.42 433.628 826.082C432.364 827.54 434.858 834.371 437.863 834.121C435.972 832.843 436.494 828.309 438.222 830.796C441.215 839.124 446.331 847.613 451.934 856.051C452.351 856.69 452.78 857.319 453.21 857.958C453.372 858.208 453.535 858.458 453.709 858.707C455.367 861.174 457.026 863.641 458.662 866.087C459.103 866.736 459.532 867.375 459.973 868.025C461.005 869.572 462.026 871.11 463.047 872.638C464.764 875.185 466.446 877.711 468.023 880.218C468.569 881.097 469.114 881.965 469.624 882.824C469.845 883.194 470.065 883.553 470.274 883.913C470.691 884.642 471.109 885.361 471.503 886.08C470.842 884.801 471.318 883.743 471.805 882.724C472.814 884.102 473.812 885.49 474.809 886.888C473.591 887.787 472.478 887.787 471.318 887.767C474.809 889.215 474.914 894.398 475.911 897.754C476.306 899.102 476.851 900.16 477.814 900.55C476.7 896.815 480.088 901.508 479.334 902.627C479.566 902.547 479.774 902.467 479.96 902.397C482.176 901.568 481.828 901.488 484.948 903.026C485.041 903.086 485.134 903.126 485.227 903.176C484.646 902.158 483.626 901.049 483.127 900.051C482.814 899.411 482.721 898.822 483.115 898.353C484.217 899.022 485.25 899.801 486.224 900.68H486.236C487.048 901.399 487.825 902.178 488.579 903.016C488.591 903.026 488.602 903.046 488.614 903.066C490.389 905.034 491.99 907.3 493.474 909.697C494.205 910.875 494.913 912.084 495.597 913.312C496.421 914.79 497.221 916.288 498.01 917.786C499.924 921.441 501.734 925.046 503.636 928.182C504.077 928.901 504.518 929.6 504.97 930.259C506.258 930.888 506.768 930.558 507 929.889C507.522 928.411 506.687 925.306 509.46 926.963C508.566 932.556 519.772 931.747 516.431 936.211C514.668 936.69 511.582 933.125 509.285 931.817H509.274C507.824 930.998 506.687 931.108 506.432 933.764C506.42 933.834 506.42 933.904 506.409 933.984C506.501 934.034 506.606 934.084 506.699 934.133C508.45 935.012 510.364 935.582 512.232 936.151C516.802 937.559 521.06 938.997 521.733 945.098C529.899 937.719 536.314 954.515 543.808 955.874C543.924 959.598 546.337 968.406 552.125 970.493C547.474 962.405 544.748 954.635 547.717 948.154C548.75 949.253 549.747 951.2 550.896 950.531C548.007 943.7 544.226 949.842 541.291 943.371C537.811 945.747 544.481 950.311 541.476 952.828C534.841 945.019 528.751 937.928 526.152 930.688C527.869 934.573 530.166 929.929 531.941 932.815C531.836 934.313 533.727 940.485 535.688 939.606C541.476 937.599 553.413 946.666 553.912 956.343C561.243 955.614 560.652 965.371 561.696 966.509C560.362 963.174 565.628 964.861 566.811 965.8C562.693 968.806 571.927 978.263 571.637 970.154C574.932 974.238 573.342 976.775 572.043 977.873C576.463 979.581 580.836 981.698 585.337 982.147C583.029 983.715 581.057 982.367 582.623 985.872C585.731 987.37 584.873 985.133 586.845 985.832C587.251 986.781 587.031 987.58 585.871 988.209C587.228 988.029 588.318 988.209 589.223 988.658C590.116 989.098 590.824 989.797 591.392 990.656C592.158 991.824 592.692 993.272 593.109 994.74H594.594M1032.28 128.154C1031.95 126.326 1028.42 123.62 1032.25 122.951C1031.39 124.718 1033.03 127.135 1034.14 129.392L1034.09 129.352C1032.37 130.121 1031.81 131.179 1031.87 132.468C1029.62 133.376 1028.64 131.329 1027.8 129.132C1030.57 129.681 1029.45 127.604 1032.28 128.154ZM1028.12 119.555C1024.01 118.617 1025.65 116.639 1025.23 113.614C1029.31 114.552 1027.73 116.53 1028.12 119.555ZM696.433 38.0476C694.252 38.3672 694.612 33.5138 691.097 36.5397C688.974 29.0899 684.937 25.6247 682.257 19.2934C689.763 25.8444 691.352 29.789 696.433 38.0077V38.0476ZM66.0268 49.1623C63.2079 48.9626 62.5699 41.8823 66.2124 42.3517C67.3956 43.2005 68.1844 44.7684 68.8108 46.9254C67.2448 47.2949 65.6904 47.6544 66.0268 49.1623ZM187.598 215.623C177.877 204.219 172.796 182.339 168.191 168.997C166.079 166.401 163.887 171.664 165.337 174.08C161.892 174 163.782 168.927 162.715 166.95C164.525 166.111 165.441 167.579 167.297 166.591C169.455 165.202 165.604 160.599 165.337 157.923C169.351 161.038 172.239 164.543 174.466 168.488C176.728 172.403 178.434 176.647 179.907 181.28C182.877 190.558 185.069 201.303 190.231 213.246C188.758 213.726 187.227 214.195 187.598 215.623ZM163.887 267.332C161.184 267.392 160.697 260.861 158.887 258.304C164.861 258.404 162.182 262.329 163.887 267.332ZM159.328 232.11C162.553 232.759 162.773 235.466 163.156 238.821C158.516 240.758 162.182 235.066 159.328 232.11ZM184.814 93.9107V93.8707C186.449 93.6111 186.449 97.2461 188.201 96.6569C188.677 98.8139 187.343 99.9523 184.814 100.462C184.118 98.5143 183.399 96.537 182.702 94.6097C183.897 95.0092 185.115 95.3787 184.814 93.9107ZM189.083 112.146C189.373 114.123 186.855 111.786 187.377 114.083C181.774 113.434 183.549 104.187 182.296 100.012C188.294 99.5429 184.93 110.977 189.083 112.146ZM153.354 21.5703C156.323 23.0982 160.024 22.9983 161.439 28.1412C162.077 26.9429 163.411 26.134 165.302 25.6247C164.107 29.06 169.49 31.6165 167.378 35.4212C168.608 36.7594 170.383 36.8792 172.425 36.3999C174.385 46.5259 175.684 52.3379 180.034 62.6637C181.067 59.3083 175.023 53.2067 179.246 49.8513C177.506 47.5845 175.162 46.7456 174.385 42.2918C176.357 40.8937 176.682 37.8179 179.292 39.3658C180.51 41.9622 176.659 41.6626 177.285 43.9195C178.515 46.5559 181.067 45.727 180.475 42.861C186.403 54.2253 188.642 59.9375 189.929 71.0821C188.12 68.7653 183.596 67.1575 185.069 63.5525C178.468 65.6296 184.118 69.9437 186.786 72.1406C185.591 72.8696 184.071 78.0525 183.375 75.8955C180.069 77.1837 181.322 70.0835 178.062 67.1975C176.067 71.4416 183.213 80.4991 182.146 82.8759C184.454 81.2281 186.786 78.6417 188.224 83.4251C184.454 84.3438 182.702 86.391 182.099 89.0574C181.542 91.7237 182.099 95.0092 182.923 98.4045C181.658 97.8253 180.069 97.9651 178.294 98.6941C177.738 91.7536 173.654 82.1868 169.084 72.1007V72.1806C164.56 62.0945 159.699 51.4591 157.994 42.3517C159.85 41.5827 160.697 43.0907 162.634 42.1719C160.848 38.5569 157.17 39.3258 155.616 35.2714L159.85 33.9133C159.293 31.7563 157.692 31.8362 157.217 29.5393C155.732 27.0428 156.022 31.4966 153.609 29.3396L151.614 23.4277C152.913 23.248 153.423 22.5489 153.354 21.5703ZM145.419 112.805H145.454V112.835C148.424 114.622 144.097 117.658 146.336 121.872C147.345 121.463 146.614 120.105 146.533 119.126C148.122 118.866 148.203 122.521 149.943 121.932C151.869 119.855 147.646 114.333 147.124 110.867C153.841 114.193 156.729 126.795 161.184 129.981C159.583 132.607 155.767 132.827 154.885 132.208C151.718 134.545 155.697 134.904 154.502 137.73C157.066 140.576 155.326 133.236 158.887 133.486C162.251 142.584 161.636 145.11 166.555 148.136C166.381 152.49 164.78 148.575 168.121 155.626C161.08 158.881 163.852 148.575 160.07 146.498C157.101 152.081 169.571 160.489 162.518 163.045C158.295 147.856 143.76 131.928 145.454 112.835L145.419 112.805ZM146.974 194.502C144.12 195.491 140.895 193.663 141.974 190.927C144.561 189.499 145.64 192.385 146.974 194.502ZM144.862 183.028C144.004 189.07 140.153 191.586 136.035 184.925C136.951 184.855 137.554 185.734 138.587 185.335H138.552C132.984 170.096 131.023 168.927 124.457 156.544C133.622 147.836 140.999 176.567 144.862 183.028ZM127.474 205.946H127.508V205.986C127.508 205.986 127.485 205.956 127.474 205.946C124.887 206.486 122.81 205.547 119.713 207.514C117.88 200.574 119.121 196.879 118.414 188.81C124.527 191.107 122.984 199.266 127.474 205.946ZM113.808 163.125C116.094 161.867 116.268 166.111 118.274 165.602C118.274 165.602 118.263 165.572 118.263 165.562L118.298 165.602H118.274C119.481 169.836 113.252 163.964 114.516 168.308C110.885 168.308 113.518 164.064 113.808 163.125ZM110.955 168.228C109.806 174.63 117.741 176.527 117.706 183.537H117.66C114.957 183.617 113.437 180.551 110.688 180.651C113.252 177.885 107.022 170.246 110.955 168.228ZM107.799 136.672C105.526 144.261 113.136 150.882 112.324 162.277C106.581 154.278 100.897 133.376 107.799 136.672ZM102.684 129.032C99.0876 128.922 101.779 132.348 102.301 134.585C99.4936 131.079 97.2199 124.598 94.7027 117.378C92.371 110.098 89.8422 102.029 86.3157 95.2988C97.4172 100.971 95.9671 116.929 102.684 129.032ZM92.0694 125.917C87.6961 120.953 85.7241 114.043 83.7636 107.622C81.7915 101.191 79.8195 95.2289 75.8174 92.0432C78.8683 89.8962 79.7499 92.8921 81.9424 92.7423C82.9748 100.052 84.3088 101.44 86.1997 108.94C88.9953 100.342 94.7491 123.031 92.0694 125.917ZM78.9031 84.1541C78.7523 73.4189 72.1865 64.5311 78.6015 58.6193C79.7499 67.6468 83.4272 70.0835 87.8701 75.8256C87.3597 77.7929 85.8053 79.151 86.3157 81.7075C83.23 80.6789 83.7288 79.2608 83.23 75.9754C79.5643 78.3421 78.5667 82.2867 80.1211 87.8091C76.4902 89.9661 74.785 87.4096 73.8454 83.0956C76.4554 81.2281 76.7918 84.8232 78.9031 84.1541ZM71.1773 92.233C75.2258 91.9833 73.8454 96.1076 73.2305 98.3346C70.6205 98.8539 70.8177 93.1417 71.1773 92.233ZM76.8614 135.144C76.351 133.456 75.8638 131.769 75.3998 130.081C73.7062 123.819 72.3837 117.478 71.6297 111.117C71.3165 110.558 70.7945 110.488 70.2725 110.418C69.646 110.348 69.008 110.288 68.7064 109.409C68.6716 109.23 68.6368 109.05 68.6136 108.87C68.1264 106.134 68.2888 103.757 68.37 101.33C71.7341 100.522 72.1865 106.813 73.741 110.428C75.2954 110.018 76.7918 109.629 76.4902 108.131C82.4296 119.416 87.4757 141.515 99.8648 157.273C100.155 161.617 100.155 165.792 98.1596 168.857C100.306 172.073 101.268 166.91 103.38 166.95C105.305 169.736 101.303 174 104.981 174.59C105.352 178.474 103.913 176.527 101.222 177.336C105.05 182.888 107.939 186.913 108.611 191.107C112.579 191.037 108.878 186.713 108.495 184.276C111.024 185.475 112.695 188.361 113.658 191.466C114.655 194.542 114.887 197.828 114.435 199.945C110.804 202.321 105.387 196.879 107.614 203.889C104.795 201.922 103.716 196.839 102.858 192.095C102.022 187.342 101.164 182.988 98.4148 182.519C99.076 192.715 109.133 207.554 104.644 214.674C99.8648 209.082 97.8928 203.06 96.3383 196.739L96.3035 196.769C94.8535 190.408 93.7399 183.827 90.4802 177.156C91.5474 176.757 92.5798 176.377 93.6587 175.978C93.6935 175.968 93.7282 175.958 93.7747 175.938C93.7631 175.928 93.7631 175.908 93.7515 175.888C89.529 167.869 85.3412 158.781 81.6408 149.095C79.9239 144.551 78.2999 139.877 76.8614 135.144ZM121.523 230.343C123.46 229.794 123.123 228.046 125.2 227.537C128.088 231.911 123.495 232.36 126.429 236.744C124.237 236.235 123.297 232.11 121.523 230.343ZM156.579 419.982C155.326 420.281 155.465 419.043 156.022 418.823V418.783C149.421 416.806 158.295 416.626 155.801 413.111C157.333 412.861 158.029 415.678 159.073 417.395C157.588 417.944 156.103 418.494 156.579 419.982ZM139.921 261.839L139.897 261.879C136.893 246.57 131.128 234.008 126.569 218.729C124.713 219.647 127.543 223.043 126.348 224.321C123.042 225.38 121.488 217.74 124.573 216.722C121.117 214.125 120.154 214.235 116.326 217.091C119.713 204.518 126.87 209.521 130.988 223.882C132.125 222.274 130.988 219.468 130.733 217.121C133.807 215.293 133.656 222.274 136.174 221.864C136.475 223.632 133.958 223.882 132.508 224.651C138.111 235.875 138.958 236.524 144.422 248.947C141.081 252.093 146.788 255.009 143.563 258.953C145.79 261.839 144.456 254.4 147.716 257.306C150.361 265.984 147.194 266.303 152.611 274.752C155.616 273.753 148.087 267.512 153.203 267.591C153.864 273.713 156.579 277.638 160.221 281.362C157.994 282.701 156.173 282.781 154.583 282.271C155.581 285.527 157.657 285.607 160.186 284.139C163.817 289.691 161.335 292.218 160.024 295.323C149.723 292.178 148.679 267.611 139.921 261.839ZM160.302 379.647C165.662 379.138 163.933 384.87 167.599 387.756C163.968 389.114 162.82 382.064 160.302 379.647ZM173.353 413.7L175.603 418.414C174.605 418.893 173.608 419.332 172.575 419.802C171.937 417.355 170.522 414.579 173.353 413.7ZM171.125 470.991C174.652 468.395 174.791 468.045 178.735 468.804C177.506 471.581 173.608 475.855 171.125 470.991ZM177.181 419.153V419.113C179.814 418.054 181.067 422.099 182.552 425.214L179.512 426.632C177.993 423.786 176.659 421.04 177.181 419.153ZM175.545 477.602C175.244 476.074 175.87 473.778 176.984 475.455C177.656 474.207 176.728 472.24 178.874 471.65C178.77 473.009 178.654 474.357 179.988 474.027C180.371 475.425 178.399 475.775 179.13 477.353C178.016 477.093 176.914 476.913 175.545 477.602ZM182.32 503.527C179.884 499.542 178.097 501.979 177.738 496.976C179.292 496.676 180.069 499.502 181.102 501.17C182.18 500.411 180.846 498.623 180.324 497.165C181.624 495.108 185.452 499.033 184.338 495.188C186.484 495.597 183.515 501.509 182.32 503.527ZM182.876 416.956V416.916C178.874 409.616 175.29 402.156 172.378 398.431C180.15 399.12 189.117 423.127 195.753 434.781C191.229 431.496 186.855 424.256 182.876 416.956ZM199.395 534.614C202.841 536.042 201.367 533.216 199.581 530.12C204.291 529.491 202.667 537.57 203.954 541.145C201.692 542.103 200.985 536.401 199.395 534.614ZM243.21 546.507C243.302 546.687 243.407 546.857 243.511 547.037C242.943 547.276 242.363 547.526 241.91 547.816C241.214 548.275 240.808 548.844 241.122 549.703C238.233 551.201 235.298 544.44 235.82 542.173L235.855 542.213C238.79 541.554 241.18 543.212 243.21 546.507ZM235.205 526.505C236.296 530.629 237.711 534.863 237.607 538.418C233.57 539.497 235.379 533.735 231.818 529.68C233.674 528.902 233.187 527.194 235.205 526.505ZM209.94 523.429C212.712 521.502 213.942 526.175 215.868 527.743L212.863 529.241C211.854 527.304 210.891 525.366 209.894 523.429H209.94ZM219.429 542.034C212.492 539.946 206.854 537.38 206.553 526.565C210.938 528.143 211.413 538.159 220.021 535.852C221.656 541.115 223.988 545.469 225.96 549.194C227.886 552.919 229.44 556.024 229.66 558.79C222.689 557.592 218.083 548.135 219.429 542.034ZM235.113 573.6C235.113 573.6 235.124 573.62 235.124 573.63L235.078 573.6H235.113C232.63 567.379 233.593 564.033 228.292 560.947L233.233 558.361C235.345 565.341 242.131 572.312 243.987 580.73C239.138 579.812 240.576 573.26 235.113 573.6ZM259.566 654.309C260.39 656.726 264.798 660.45 260.9 661.109C261.387 658.883 259.056 655.597 257.304 652.571C258.974 651.692 259.311 650.314 258.893 648.687C261.12 647.658 262.605 650.364 264.09 653.29C260.981 652.411 262.686 655.188 259.566 654.309ZM266.027 665.753C270.633 667.221 269.391 669.698 270.586 673.752C266.027 672.284 267.245 669.808 266.027 665.753ZM283.463 660.331C285.945 657.824 287.43 660.67 289.912 658.154C289.135 660.88 294.518 665.823 289.912 667.141C294.32 666.732 294.483 674.261 296.629 678.356C292.766 670.537 285.098 666.812 283.463 660.331ZM301.64 684.527C299.703 679.484 299.483 680.583 296.258 675.58C296.733 672.774 301.373 671.415 303.09 676.129C295.295 676.089 306.617 680.802 301.64 684.527ZM312.429 691.807C314.435 691.907 316.175 693.405 317.695 696.261C314.992 698.188 311.953 694.244 312.429 691.807ZM311.698 716.503C313.333 720.997 317.103 720.638 316.396 724.352C313.09 728.157 306.791 717.642 311.698 716.503ZM315.92 738.423C314.25 733.49 312.73 728.527 318.704 726.04C317.173 730.025 319.667 735.177 315.92 738.423ZM495.551 936.171C498.358 933.145 504.634 943.311 500.11 944.07C500.04 940.015 494.855 938.807 495.551 936.171ZM331.65 700.056C335.072 701.814 334.133 704.37 337.961 708.394C334.991 710.062 331.349 702.473 331.65 700.056ZM337.624 720.698C332.543 721.696 332.915 713.907 329.945 710.182C335.432 711.969 336.406 714.276 342.102 719.499C339.596 718.8 334.388 713.947 337.624 720.698ZM343.599 715.594C346.638 712.519 348.041 720.048 350.35 722.135C346.452 723.154 347.821 717.562 343.599 715.594ZM373.492 744.305C371.567 745.763 370.604 740.7 369.119 739.402C371.416 739.402 373.678 739.402 375.383 743.137C374.119 742.997 372.866 742.857 373.492 744.305ZM377.645 750.846C376.949 749.787 375.975 750.706 375.093 750.926C373.898 747.231 375.72 748.799 378.167 747.451C380.951 750.377 378.585 751.685 381.357 754.611C380.325 754.87 375.615 752.534 377.645 750.846ZM401.171 771.098L401.206 771.058C402.621 771.348 404.071 770.878 405.66 769.74L408.479 774.054C405.73 775.262 403.468 773.255 401.171 771.098ZM404.546 778.108C408.259 777.969 407.481 780.265 411.367 784.43C408.375 787.605 406.809 780.126 404.546 778.108ZM437.341 815.996C433.524 810.773 429.359 804.931 423.873 799.299C420.462 802.734 428.176 803.933 426.993 808.037C423.652 809.675 421.425 802.814 418.757 799.589C420.729 795.235 424.395 798.121 427.144 794.116C431.216 800.827 435.415 806.03 439.081 811.353C442.827 816.655 446.134 822.068 448.291 829.368C444.614 825.873 441.192 821.179 437.341 815.996ZM476.329 866.057C476.178 868.574 477.338 871.42 478.116 874.206C475.447 874.346 471.248 866.896 471.399 864.809C473.29 862.882 474.253 869.972 476.329 866.057ZM472.919 859.157C470.32 860.315 466.202 858.448 466.504 855.761C468.812 855.602 471.063 855.532 472.919 859.157ZM459.741 855.761C460.007 861.054 466.237 865.109 469.288 869.492C466.573 868.204 456.121 861.923 459.741 855.761ZM465.645 848.591C467.571 850.519 466.944 851.797 467.652 853.445C465.576 852.286 461.713 852.067 465.645 856.411C461.678 853.744 458.047 846.394 453.767 841.182C459.938 840.153 460.135 852.426 465.645 848.591ZM468.174 871.829C468.545 871.819 468.882 871.839 469.206 871.889H469.218C470.135 872.039 470.831 872.398 471.422 872.908C472.06 873.457 472.571 874.196 473.046 875.015C474.16 876.882 475.181 879.209 477.512 880.957C476.886 881.216 476.329 881.286 475.819 881.216C472.107 880.697 471.213 872.309 468.174 871.829ZM499.97 904.404C501.78 902.857 503.045 907.81 504.634 908.938C506.71 907.7 502.372 904.954 501.78 903.096C506.571 903.935 505.852 907.33 507.789 911.385C504.309 910.586 500.945 908.768 499.97 904.404ZM512.684 923.748C515.132 924.367 519.366 925.765 519.146 928.571C516.594 929.56 512.429 927.333 512.684 923.748ZM513.949 918.056C518.809 916.987 522.51 927.003 524.899 930.688C521.176 926.494 516.547 923.978 513.949 918.056ZM530.792 942.272C528.751 943.331 526.93 940.814 524.899 941.843C524.076 939.936 527.046 938.877 523.589 936.42C526.257 934.673 528.449 939.506 530.792 942.272ZM651.691 707.176C652.468 711.121 653.779 715.185 655.554 719.349C652.955 717.642 650.693 714.896 648.501 711.61C646.389 708.275 644.394 704.41 642.202 700.465C640.346 697.11 638.339 693.695 636.042 690.559C642.422 695.852 647.248 700.975 651.691 707.176ZM636.448 704.26C640.45 705.758 642.677 709.553 644.568 713.577C646.54 717.562 648.095 721.726 650.612 723.993C648.28 723.034 645.728 723.234 642.979 724.542C639.708 719.349 640.752 713.318 636.227 710.142C637.039 708.394 639.336 707.036 636.448 704.26ZM635.787 703.202C633.559 703.271 631.657 701.304 629.987 698.228C632.55 697.639 636.181 701.074 635.787 703.202ZM606.612 674.012C604.941 672.993 603.468 670.427 602.772 668.559C604.106 670.207 605.243 671.925 606.612 674.012ZM608.108 674.401C607.691 673.602 607.331 672.793 607.586 672.184C608.108 672.694 608.584 673.343 609.025 674.112C608.735 674.301 608.41 674.401 608.108 674.401ZM619.268 679.235C619.709 680.073 620.08 680.912 619.825 681.531C617.795 679.744 615.962 676.458 614.106 673.712C619.303 671.375 622.76 678.286 625.068 682.191C623.908 682.88 622.876 683.039 621.866 682.74C621.275 681.212 620.497 679.894 619.268 679.235ZM625.845 687.343V687.373C628.177 686.395 623.015 683.589 625.984 682.74C626.402 683.079 626.843 683.359 627.318 683.649C627.91 684.567 628.397 685.476 628.873 686.355C625.068 689.97 631.541 689.65 630.926 693.405C624.801 694.833 623.943 689.46 622.574 684.827C623.827 684.707 624.952 685.256 625.845 687.343ZM627.991 709.593C627.133 708.245 626.24 706.857 625.381 705.508C628.513 702.393 632.144 708.135 627.991 709.593ZM632.26 731.962H632.295C634.337 731.153 635.485 736.416 638.002 732.401C642.422 739.891 647.503 742.697 652.108 748.839C642.677 743.546 639.893 739.631 632.26 731.962ZM647.909 738.743C648.153 738.892 649.695 739.072 650.171 740.031C646.088 731.553 630.648 721.796 625.602 709.073C625.532 708.964 625.451 708.854 625.381 708.754L625.462 708.724C625.509 708.844 625.555 708.954 625.602 709.073C628.281 713.058 631.634 716.863 635.183 720.518C641.749 727.209 648.466 733.6 651.169 740.62C654.254 741.309 655.67 744.934 657.108 746.132C657.444 747.6 657.885 748.689 658.86 748.549C655.333 750.746 652.561 745.773 647.909 738.743ZM677.768 773.944C675.355 770.838 673.244 767.174 671.608 763.529C674.323 766.604 676.098 769.231 679.52 773.175H679.555C678.928 773.615 678.371 773.824 677.768 773.944ZM678.766 70.7126C678.627 70.5329 678.511 70.3132 678.371 70.1234C677.849 68.965 678.371 67.3872 680.517 66.9478C681.074 68.216 681.596 69.5143 682.153 70.7825C680.703 71.7312 679.485 71.4416 678.766 70.7126ZM685.076 77.5432V77.0339C685.158 77.2836 685.262 77.5432 685.343 77.7929C685.262 77.7329 685.204 77.6531 685.076 77.5432ZM769.225 928.871C774.665 928.471 772.299 934.383 775.118 938.188C773.006 940.485 771.696 932.416 769.584 934.753V934.713C767.369 932.376 772.415 931.357 769.225 928.871ZM765.397 929.16C765.548 929.41 765.664 929.63 765.803 929.889C765.548 929.67 765.327 929.53 765.142 929.38C765.142 929.38 765.327 929.24 765.397 929.16ZM754.26 909.398C755.861 912.613 757.717 915.749 759.84 919.324C756.639 916.777 753.75 914.91 754.26 909.398ZM751.036 901.608C751.639 903.436 752.312 905.113 753.008 906.731C750.978 905.333 749.04 903.845 747.335 902.078C748.263 900.879 749.632 901.139 751.036 901.608ZM734.61 865.138C738.507 868.654 740.653 871.5 745.653 878.151C742.289 881.176 743.066 885.021 744.261 888.966C742.127 885.97 740.212 882.684 738.391 879.349C739.064 879.718 739.795 879.649 740.619 878.8C735.712 877.601 738.797 870.361 734.424 871.719C733.763 870.401 733.078 869.123 732.417 867.845C732.788 868.144 733.345 868.364 734.238 868.394C733.461 867.126 732.788 865.867 734.61 865.138ZM733.345 862.432C732.603 863.79 731.675 865.508 731.826 866.746C729.598 862.552 727.336 858.707 724.819 855.721C727.858 857.938 730.712 860.175 733.345 862.432ZM690.041 83.7946C695.169 82.037 696.537 88.2884 698.591 93.1417C693.011 94.4599 691.352 87.6693 690.041 83.7946ZM703.521 93.5512C708.753 91.6538 709.866 109.12 706.154 97.1263C705.006 96.5371 704.147 95.3387 703.521 93.5512ZM707.558 831.345C711.606 829.697 711.119 834.7 713.497 837.377C710.087 839.124 708.637 833.802 707.558 831.345ZM781.579 962.594C784.688 965.331 780.988 965.55 779.723 965.59C780.941 968.506 782.159 971.392 782.391 974.098C772.078 964.492 762.81 954.336 756.058 947.645H756.012C747.672 945.388 736.431 935.851 734.83 928.871C732.417 928.242 728.38 924.447 724.413 920.253C721.443 917.137 718.659 913.732 716.548 911.325C716.165 911.045 715.573 910.416 714.645 909.208C715.167 909.757 715.805 910.496 716.548 911.325C717.986 912.423 715.805 907.61 716.548 906.212C719.808 910.127 722.186 913.732 724.517 916.108C726.884 918.445 729.157 919.584 732.162 918.605C732.637 920.053 732.986 921.451 732.719 922.799C731.93 922.21 731.187 920.972 730.306 921.601C734.122 928.721 734.9 915.819 739.458 920.502C735.422 924.846 745.699 926.354 738.844 930.259C735.978 927.662 737.765 924.776 734.122 926.274C740.619 935.002 748.298 941.873 752.787 945.488C753.228 939.796 743.762 936.5 741.245 931.457C741.616 929.59 743.704 927.982 744.064 926.125C742.127 919.504 735.538 917.247 737.568 911.255C751.036 921.741 743.031 923.678 750.293 932.006C749.852 931.497 750.154 930.399 751.152 931.317C756.789 936.69 757.613 940.565 763.552 944.619C764.028 947.765 763.773 958.61 770.443 953.018C766.696 949.982 762.729 945.708 765.362 941.583C760.42 932.266 749.922 933.025 749.075 925.256C752.671 929.021 756.418 930.948 760.316 930.179C757.567 925.725 754.26 929.999 751.592 924.806C753.008 924.037 754.307 925.176 755.722 924.587C750.514 921.521 742.428 914.66 745.096 909.947C752.37 915.929 758.089 921.96 763.842 926.414C764.144 926.963 764.469 927.553 764.805 928.142C764.585 928.352 764.33 928.531 764.144 928.761C763.552 928.471 763.506 928.761 763.692 929.3C763.39 929.75 763.39 930.079 763.993 930.039C764.724 931.677 766.139 934.243 765.281 934.753C764.77 934.243 764.214 933.914 763.425 933.914C763.61 934.124 763.807 934.383 763.993 934.633C763.947 934.633 763.923 934.633 763.9 934.633C763.935 934.663 764.005 934.703 764.063 934.723C766.035 937.649 767.392 943.121 771.116 943.241C768.366 941.453 767.438 938.198 766.22 936.081C770.524 938.927 775.269 943.381 776.556 946.556C777.125 945.168 779.978 943.381 780.419 944.949C780.384 948.134 777.38 947.735 781.649 950.151C778.053 952.009 776.974 954.346 778.679 957.122C780.268 958.041 782.159 954.645 783.69 956.313C784.607 960.377 785.883 960.627 786.463 963.433C784.908 962.415 783.273 962.165 781.579 962.604V962.594ZM816.334 976.985C810.174 974.029 807.691 970.843 802.866 965.92C803.016 963.803 805.093 962.155 807.204 962.484C805.835 958.72 803.353 954.805 803.759 951.3H803.794C809.478 955.694 810.394 963.583 818.642 965.84C821.565 968.985 816.113 970.923 819.814 974.218C818.921 976.395 814.594 973.729 816.334 976.985ZM923.776 28.8702C920.284 28.6905 921.653 26.9429 919.124 23.3578C922.813 21.091 922.175 27.1226 923.776 28.8702ZM920.4 35.4412L918.95 31.8362C921.838 31.0672 923.393 32.8548 924.924 34.7222C923.694 34.3826 922.209 34.6822 920.4 35.4412ZM939.274 48.9326C940.306 48.7928 944.169 50.8699 941.837 52.0783C942.243 52.9071 943.392 52.258 944.285 52.1482C944.505 55.1041 943.171 53.7959 940.549 54.7146C938.612 52.258 941.211 51.3393 939.274 48.9326ZM942.058 58.2498C943.218 58.4395 944.354 58.5793 944.134 57.4109C946.326 56.3424 945.955 60.3669 947.069 61.4654C944.911 61.3855 942.765 61.2856 942.058 58.2498ZM960.49 75.8256C964.4 75.1265 961.766 79.5205 965.212 81.1882C961.604 83.5649 962.126 77.5432 960.49 75.8256ZM973.297 93.5512C970.397 92.1631 971.812 90.1558 969.063 86.9802C972.23 85.682 974.074 91.6837 973.297 93.5512ZM967.543 78.1324C969.701 78.7515 973.448 82.6562 972.033 77.2836C976.928 76.6744 975.002 82.6562 977.009 85.6221C972.23 84.1541 971.592 82.4065 967.543 78.1324ZM989.723 100.092C987.867 100.012 986.533 98.8539 985.686 96.6169C988.61 95.119 990.698 98.1448 989.723 100.092ZM996.591 63.8421C996.892 67.7067 997.194 71.5914 991.034 73.4189C993.25 70.3831 992.368 66.2587 996.591 63.8421ZM992.855 74.7271C996.776 71.851 1000.49 79.9499 995.628 80.7987C995.071 77.3235 991.394 77.5831 992.855 74.7271ZM995.303 112.335C1002.58 112.255 992.948 108.68 998.412 105.714C999.189 109.669 999.63 108.78 1001.56 112.695C1000.52 114.922 995.883 116.06 995.303 112.335ZM1004.13 126.246C1005.3 124.089 1001.08 120.404 1005.72 119.236C1001.64 119.625 1002.84 114.073 1001.86 110.827C1003.93 116.709 1010.1 119.505 1010.63 124.349H1010.65C1007.83 126.406 1006.94 124.209 1004.13 126.246ZM1031.34 211.089C1032.81 210.48 1034.26 209.851 1033.92 208.753C1036.81 207.324 1038.73 212.407 1037.96 214.275C1034.99 215.114 1032.84 213.875 1031.34 211.089ZM1036.99 226.698C1036.29 223.552 1035.29 220.376 1035.92 217.53C1039.81 216.292 1037.48 221.036 1040.51 223.842C1038.66 224.651 1039 225.929 1036.99 226.698ZM1035.29 184.596C1039.78 184.925 1037.55 190.228 1042.78 189.459C1044.3 194.173 1042.97 196.879 1047.56 198.816L1042.56 201.303C1041.48 195.96 1035.95 191.067 1035.29 184.596ZM1055.58 223.672L1058.55 222.134L1060.81 226.338H1060.84C1058.03 228.196 1057.33 224.651 1055.58 223.672ZM1064.32 223.472C1060.32 222.743 1060.81 215.034 1052.39 217.78C1050.13 209.971 1045.75 204.948 1046.01 200.644C1052.47 200.943 1055.47 207.984 1053.55 212.917C1059.96 213.796 1065.08 215.114 1064.32 223.472ZM1176.78 937.888C1178.94 936.58 1181.44 941.463 1181.34 942.602C1179.75 943.111 1178.18 942.352 1176.66 940.954C1178.33 939.976 1177.59 938.957 1176.78 937.888ZM1142.57 439.425C1140.84 440.413 1141.28 441.692 1139.38 442.65C1136.3 440.014 1140.54 438.406 1137.45 435.82C1139.56 435.62 1140.79 438.586 1142.57 439.425ZM1104.33 299.408C1105.52 298.968 1105.33 299.957 1104.81 300.246C1110.82 300.626 1102.55 302.334 1104.73 304.66C1103.26 305.19 1102.72 303.073 1101.89 301.894C1103.28 301.205 1104.69 300.506 1104.33 299.408ZM1102.28 398.062C1112.12 398.062 1114.3 417.355 1122.77 419.802H1122.65C1126.73 430.946 1133.27 439.215 1138.94 449.91C1140.57 448.672 1137.64 446.805 1138.65 445.457C1141.65 443.709 1143.76 449.221 1140.98 450.889C1144.39 451.958 1145.28 451.598 1148.59 448.263C1146.62 459.118 1139.51 457.25 1134.38 447.064C1133.45 448.632 1134.78 450.54 1135.26 452.327C1132.59 454.624 1132.04 449.072 1129.74 450.1C1129.3 448.812 1131.63 447.903 1132.93 446.885C1126.65 439.605 1125.81 439.315 1119.58 431.066C1122.43 427.691 1116.79 426.932 1119.5 423.017C1117.16 421.34 1119.05 426.822 1115.75 425.394C1112.83 419.113 1115.75 418.094 1110.26 412.682C1107.48 414.21 1114.86 417.355 1110.08 418.564C1109.16 413.82 1106.41 411.363 1102.8 409.246C1104.86 407.639 1106.51 407.129 1108.08 407.129C1106.97 404.793 1105.03 405.222 1102.7 406.989C1099.02 403.394 1101.21 400.848 1102.28 398.062ZM1132.81 532.457C1131.97 533.116 1132.81 533.945 1133.07 534.724C1131.63 535.453 1131.04 532.527 1129.52 533.555C1128.07 535.852 1132.81 538.928 1133.82 541.514C1127.15 541.045 1122.51 531.768 1117.91 530.629C1118.99 528.033 1122.51 526.645 1123.4 526.864C1125.96 524.018 1122.21 524.957 1122.91 522.331C1120.1 520.873 1122.85 526.215 1119.5 527.114C1114.97 520.873 1115.16 518.676 1110.11 517.737C1109.64 514.182 1111.71 516.848 1107.56 512.215C1113.68 507.491 1112.61 516.559 1116.46 517.068C1118.43 511.705 1105.47 508.779 1111.71 504.605C1117.94 515.46 1133.79 523.579 1135.07 539.437H1135.04C1131.97 538.958 1135.52 535.123 1132.81 532.457ZM1122.21 474.876C1124.74 473.258 1127.93 473.807 1127.21 476.284C1124.96 478.152 1123.68 476.184 1122.21 474.876ZM1106.97 448.303C1103.88 448.632 1103.39 446.555 1102.7 443.999C1106.89 441.212 1103.95 446.735 1106.97 448.303ZM1105.03 427.361C1099.47 428.76 1101.72 424.925 1099.83 421.34C1102.36 420.611 1103.17 425.764 1105.03 427.361ZM1100.2 331.533C1095.12 332.981 1096.81 328.128 1093.31 326.6C1096.76 324.843 1097.84 330.135 1100.2 331.533ZM1093.16 262.059C1089.67 264.626 1089.53 264.955 1085.81 264.955C1087.12 262.608 1091.09 258.704 1093.16 262.059ZM1088.3 307.337L1086.4 304.011C1087.37 303.462 1088.34 302.913 1089.3 302.364C1089.79 304.191 1091.01 306.168 1088.3 307.337ZM1089.33 257.685C1089.53 258.814 1088.78 260.721 1087.86 259.543C1087.15 260.601 1087.93 261.999 1085.84 262.798C1086.04 261.74 1086.18 260.681 1084.93 261.11C1084.63 260.092 1086.52 259.503 1085.92 258.404C1086.96 258.404 1088.04 258.404 1089.33 257.685ZM1085.11 238.392C1087.04 241.168 1088.93 239.011 1088.81 242.885C1087.34 243.315 1086.85 241.198 1086.01 240.069C1084.93 240.798 1086.01 242.037 1086.37 243.095C1084.96 244.863 1081.74 242.336 1082.43 245.182C1080.47 245.182 1083.78 240.139 1085.11 238.392ZM1083.07 298.129C1084.37 300.147 1085.52 302.074 1084.96 303.682C1082.43 305 1081.44 301.974 1080.15 299.777L1083.07 298.129ZM1071.9 216.352V216.392C1068.74 215.703 1069.9 217.7 1071.27 219.897C1066.75 220.926 1069.08 214.485 1068.19 211.858C1070.46 210.87 1070.52 215.194 1071.9 216.352ZM1079.47 306.388C1082.87 311.531 1086.01 316.834 1088.81 319.18C1081.15 320.269 1073.87 302.443 1068.05 294.335C1072.2 296.222 1076.02 301.235 1079.47 306.388ZM1079.81 471.62C1081.18 470.852 1082.51 470.043 1082.04 468.984C1092.42 475.635 1099.36 492.042 1105.33 501.539H1105.41C1107.81 502.977 1109 498.184 1107.36 496.616C1110.52 495.737 1109.55 500.231 1110.82 501.509C1109.22 502.718 1108.14 501.839 1106.55 503.157C1104.73 504.905 1109.03 507.431 1109.67 509.468C1105.47 508.2 1102.21 506.253 1099.53 503.776C1096.91 501.29 1094.9 498.224 1092.98 494.848C1089.2 488.098 1085.92 479.919 1079.81 471.62ZM1094.79 553.907C1094.2 552.369 1096.91 553.508 1096.05 551.78C1101.36 550.582 1101.21 558.691 1103.1 561.716C1097.62 564.033 1098.87 553.538 1094.79 553.907ZM1098.24 566.37C1097.42 564.752 1098.46 563.364 1100.73 562.166C1101.69 563.554 1102.7 564.892 1103.66 566.29C1102.47 566.33 1101.33 566.44 1101.84 567.568C1100.39 568.307 1099.76 565.301 1098.24 566.37ZM1140.64 604.807L1137.05 607.443C1138.01 608.971 1139.42 608.342 1140.34 610.03C1142.23 611.488 1141.01 608.013 1143.65 608.852L1146.7 612.916C1145.54 613.525 1145.25 614.274 1145.5 615.033C1142.5 614.883 1139.16 616.311 1136.79 612.656C1136.46 613.865 1135.42 614.993 1133.82 616.092C1134.18 612.876 1128.71 612.736 1129.84 608.891C1128.44 608.242 1126.82 608.782 1125.02 609.88C1121.05 602.36 1118.68 598.116 1112.49 591.246C1112.22 594.311 1119.1 597.158 1115.9 601.372C1117.99 602.57 1120.32 602.46 1121.99 605.796C1120.46 607.613 1120.83 610.25 1118.13 609.88C1116.41 608.202 1120.02 607.064 1118.99 605.456C1117.27 603.749 1115.12 605.316 1116.27 607.443C1108.41 600.273 1105.11 596.359 1101.58 587.78C1103.78 589.019 1108.26 588.799 1107.66 592.194C1113.34 588.29 1107.22 586.682 1104.29 585.833C1105.25 584.854 1105.59 580.181 1106.7 581.639C1109.47 579.482 1109.77 585.653 1113.42 586.862C1114.38 582.767 1105.89 577.864 1106.36 575.607C1104.55 577.695 1102.95 580.58 1100.61 577.175C1103.95 575.198 1105.13 572.981 1105.17 570.644C1105.25 568.267 1104.14 565.741 1102.88 563.184C1104.14 563.264 1105.59 562.635 1107.11 561.467C1108.64 567.089 1114.53 573.31 1120.76 579.851H1120.66C1126.89 586.382 1133.52 593.173 1136.98 599.904C1135.46 601.182 1134.34 600.273 1132.79 601.731C1135.16 604.028 1138.35 602.101 1140.64 604.807ZM1125.32 483.494C1125.47 478.411 1128.85 475.266 1133.3 479.4C1132.45 479.719 1131.82 479.19 1130.9 479.799C1137.93 490.145 1140.12 490.355 1147.87 498.034C1140.68 507.721 1129.59 487.509 1125.32 483.494ZM1139.16 460.216C1141.54 459.048 1143.51 459.198 1146.21 456.741C1148.51 461.684 1147.73 464.96 1149.22 471.141C1143.31 471.141 1144.03 464.161 1139.16 460.216ZM1218.74 560.848C1221.22 559.969 1223.31 564.972 1219.92 566.03C1218.7 565.851 1217.59 565.012 1216.61 563.624C1217.95 562.755 1219.26 561.866 1218.74 560.848ZM1157.45 475.016L1157.42 475.046C1155.41 477.972 1162.2 481.916 1158.83 484.703C1159.05 479.4 1151.44 480.388 1150.55 474.946C1153.08 474.067 1154.89 475.935 1157.45 475.016ZM1156.86 489.556C1154.89 491.243 1154.19 487.948 1152.37 489.047C1150.62 486.081 1157.23 488.707 1155.48 485.761C1158.86 484.623 1156.96 488.717 1156.86 489.556ZM1166.02 508.27C1167.06 501.619 1159.16 498.873 1158.33 489.776C1164.75 494.159 1172.78 508.55 1166.02 508.27ZM1171.77 512.574C1175.07 511.456 1172.14 509.688 1171.33 508.12H1171.36C1174.41 509.948 1177.36 514.222 1180.66 519.045C1184.07 523.759 1187.83 529.021 1192.24 532.886C1181.15 532.457 1179.33 519.914 1171.77 512.574ZM1181.96 511.516C1186.52 514.002 1189.61 518.496 1192.54 522.66C1195.47 526.864 1198.3 530.709 1202.48 531.648C1200.12 534.394 1198.77 532.417 1196.77 533.336C1194.55 528.143 1193.06 527.563 1190.05 522.52C1188.98 530 1179.67 514.811 1181.96 511.516ZM1205.76 558.221C1203.08 551.71 1199.33 551.161 1194.21 548.385C1194.32 546.707 1195.51 545.089 1194.57 543.302C1197.54 542.972 1197.4 544.23 1198.4 546.567C1201.34 543.422 1201.52 540.016 1199.11 536.401C1202.04 533.475 1204 534.794 1205.64 537.709L1205.67 537.749C1203.63 540.086 1202.7 537.5 1200.89 538.778C1202.92 546.917 1210.45 551.311 1205.76 558.221ZM1206.67 529.82C1203.04 531.468 1203.6 527.843 1203.74 525.956C1206.01 524.638 1206.82 528.981 1206.67 529.82ZM1201.27 517.008C1199.93 517.837 1198.59 518.676 1199.11 519.694C1191.38 513.453 1184.16 497.854 1170.62 489.706C1169.76 486.45 1169.25 483.234 1170.69 480.249C1168.27 478.451 1168.05 482.725 1166.08 483.354C1163.95 481.816 1167.09 477.283 1163.65 477.972C1162.8 475.126 1164.39 476.144 1166.76 474.696C1162.53 471.62 1159.31 469.423 1158.11 466.398C1154.45 467.636 1158.45 469.833 1159.11 471.581C1156.59 471.441 1154.67 469.713 1153.41 467.636C1152.22 465.509 1151.66 462.962 1151.88 461.175C1155 458.249 1160.53 460.915 1157.82 456.092C1160.64 456.781 1161.94 460.506 1163.36 463.861C1164.75 467.237 1166.08 470.302 1168.69 469.793C1166.58 462.373 1156.04 453.635 1159.56 446.775C1164.49 449.731 1166.8 453.855 1168.8 458.309L1168.87 458.349C1170.99 462.743 1172.83 467.416 1176.74 471.471C1175.77 472.13 1174.81 472.789 1173.81 473.438C1178.74 478.271 1183.8 483.864 1188.42 490.105C1194.21 497.894 1199.26 506.692 1203.04 515.72C1203.9 516.419 1205.23 514.951 1206.05 515.969C1207.09 517.987 1207.34 519.954 1207.72 521.931C1204.79 523.759 1203.3 519.155 1201.27 517.008ZM1222.63 749.278C1225.21 752.544 1227.65 755.789 1230 759.015V755.05C1227.51 752.454 1225.13 750.027 1222.63 749.278ZM930.863 0H928.381C928.938 3.13568 929.193 6.44113 932 7.92908C931.872 4.03445 930.956 2.42666 930.863 0ZM655.461 0H649.591C650.229 1.22831 651.389 2.19697 652.619 2.31681C652.445 1.68768 652.363 1.05854 653.326 0.918735C653.547 0.808886 653.732 0.738982 653.883 0.629134C654.858 1.13843 655.89 1.60779 656.922 1.97728C656.389 1.39807 655.913 0.728996 655.461 0Z" fill="url(#paint0_linear_127_1824)" shape-rendering="crispEdges"/>
</g>
<defs>
<filter id="filter0_d_127_1824" x="0" y="0" width="1234" height="1003" filterUnits="userSpaceOnUse" color-interpolation-filters="sRGB">
<feFlood flood-opacity="0" result="BackgroundImageFix"/>
<feColorMatrix in="SourceAlpha" type="matrix" values="0 0 0 0 0 0 0 0 0 0 0 0 0 0 0 0 0 0 127 0" result="hardAlpha"/>
<feOffset dy="4"/>
<feGaussianBlur stdDeviation="2"/>
<feComposite in2="hardAlpha" operator="out"/>
<feColorMatrix type="matrix" values="0 0 0 0 0 0 0 0 0 0 0 0 0 0 0 0 0 0 0.25 0"/>
<feBlend mode="normal" in2="BackgroundImageFix" result="effect1_dropShadow_127_1824"/>
<feBlend mode="normal" in="SourceGraphic" in2="effect1_dropShadow_127_1824" result="shape"/>
</filter>
<linearGradient id="paint0_linear_127_1824" x1="101.058" y1="0.000226972" x2="1313.33" y2="131.799" gradientUnits="userSpaceOnUse">
<stop stop-color="#292929" stop-opacity="0.5"/>
<stop offset="1" stop-color="#424242" stop-opacity="0.1"/>
</linearGradient>
</defs>
</svg>
