<svg width="26" height="26" viewBox="0 0 26 26" fill="none" xmlns="http://www.w3.org/2000/svg">
<path fill-rule="evenodd" clip-rule="evenodd" d="M11.7422 2.98734C7.0676 2.98734 3.27811 6.77683 3.27811 11.4515C3.27811 16.1259 7.0676 19.9155 11.7422 19.9155C16.4168 19.9155 20.2062 16.1259 20.2062 11.4515C20.2062 6.77683 16.4168 2.98734 11.7422 2.98734ZM0.873047 11.4515C0.873047 5.44856 5.73932 0.582275 11.7422 0.582275C17.745 0.582275 22.6113 5.44856 22.6113 11.4515C22.6113 17.4543 17.745 22.3205 11.7422 22.3205C5.73932 22.3205 0.873047 17.4543 0.873047 11.4515Z" fill="white"/>
<path opacity="0.4" fill-rule="evenodd" clip-rule="evenodd" d="M18.3401 16.87L25.5186 24.0299L23.8202 25.7327L16.6416 18.5728L18.3401 16.87Z" fill="white"/>
</svg>
