<svg width="25" height="19" viewBox="0 0 25 19" fill="none" xmlns="http://www.w3.org/2000/svg">
<path opacity="0.4" d="M21.0092 17.5437C20.565 17.6221 20.1083 17.5922 19.678 17.4566C19.2478 17.3211 18.8565 17.0837 18.5374 16.7648L14.3164 11.9735H16.5126C17.2737 11.9743 18.0257 11.8083 18.7156 11.487C19.4056 11.1658 20.0167 10.6972 20.506 10.1143C20.9953 9.53135 21.3509 8.84822 21.5476 8.11301C21.7443 7.37781 21.7775 6.60841 21.6448 5.85901L23.2846 14.296C23.4128 15.0283 23.2453 15.7816 22.8187 16.3904C22.3921 16.9993 21.7413 17.4141 21.0092 17.5437Z" fill="white"/>
<path d="M16.9137 7.96403H14.508C14.2953 7.96403 14.0914 7.87954 13.941 7.72916C13.7906 7.57877 13.7061 7.37481 13.7061 7.16213C13.7061 6.94945 13.7906 6.74549 13.941 6.5951C14.0914 6.44472 14.2953 6.36023 14.508 6.36023H16.9137C17.1264 6.36023 17.3304 6.44472 17.4807 6.5951C17.6311 6.74549 17.7156 6.94945 17.7156 7.16213C17.7156 7.37481 17.6311 7.57877 17.4807 7.72916C17.3304 7.87954 17.1264 7.96403 16.9137 7.96403ZM9.69663 6.36023H8.89474V5.55833C8.89474 5.34566 8.81025 5.14169 8.65987 4.99131C8.50948 4.84092 8.30552 4.75644 8.09284 4.75644C7.88016 4.75644 7.6762 4.84092 7.52581 4.99131C7.37543 5.14169 7.29094 5.34566 7.29094 5.55833V6.36023H6.48904C6.27637 6.36023 6.0724 6.44472 5.92202 6.5951C5.77163 6.74549 5.68715 6.94945 5.68715 7.16213C5.68715 7.37481 5.77163 7.57877 5.92202 7.72916C6.0724 7.87954 6.27637 7.96403 6.48904 7.96403H7.29094V8.76593C7.29094 8.9786 7.37543 9.18257 7.52581 9.33295C7.6762 9.48334 7.88016 9.56782 8.09284 9.56782C8.30552 9.56782 8.50948 9.48334 8.65987 9.33295C8.81025 9.18257 8.89474 8.9786 8.89474 8.76593V7.96403H9.69663C9.90931 7.96403 10.1133 7.87954 10.2637 7.72916C10.414 7.57877 10.4985 7.37481 10.4985 7.16213C10.4985 6.94945 10.414 6.74549 10.2637 6.5951C10.1133 6.44472 9.90931 6.36023 9.69663 6.36023ZM23.4772 16.8501C23.175 17.2816 22.782 17.6418 22.3257 17.9052C21.8694 18.1687 21.361 18.329 20.8361 18.3749C20.3113 18.4209 19.7827 18.3513 19.2876 18.1712C18.7925 17.9911 18.3428 17.7047 17.9702 17.3322C17.9582 17.3202 17.9462 17.3081 17.9351 17.2951L13.9547 12.7754H10.2459L6.26952 17.2951L6.23444 17.3322C5.55704 18.0081 4.63935 18.388 3.6824 18.3887C3.15559 18.3885 2.63522 18.273 2.15782 18.0502C1.68043 17.8274 1.25761 17.5028 0.919048 17.0992C0.580489 16.6956 0.334409 16.2228 0.198093 15.7139C0.061778 15.205 0.0385339 14.6725 0.129994 14.1537C0.129511 14.149 0.129511 14.1443 0.129994 14.1396L1.77088 5.7107C2.01509 4.32047 2.74143 3.06079 3.82229 2.15299C4.90314 1.24519 6.26936 0.747349 7.68086 0.746948H16.5128C17.92 0.749193 19.282 1.24419 20.3624 2.14598C21.4427 3.04778 22.1731 4.29944 22.4268 5.68363C22.4268 5.68965 22.4268 5.69566 22.4268 5.70167L24.0676 14.1386C24.0681 14.1433 24.0681 14.148 24.0676 14.1527C24.1526 14.619 24.1441 15.0975 24.0428 15.5605C23.9414 16.0236 23.7492 16.4619 23.4772 16.8501ZM16.5128 11.1716C17.6825 11.1716 18.8043 10.7069 19.6314 9.87983C20.4585 9.05271 20.9232 7.9309 20.9232 6.76118C20.9232 5.59146 20.4585 4.46965 19.6314 3.64253C18.8043 2.81541 17.6825 2.35074 16.5128 2.35074H7.68086C6.64536 2.35167 5.64336 2.71775 4.85114 3.38456C4.05892 4.05138 3.52723 4.97622 3.34961 5.99637V6.0094L1.70773 14.4383C1.63515 14.8562 1.69698 15.2864 1.88432 15.6669C2.07166 16.0474 2.37486 16.3587 2.75031 16.556C3.12576 16.7533 3.55411 16.8265 3.97376 16.7649C4.3934 16.7034 4.78272 16.5103 5.08572 16.2136L9.28767 11.4433C9.3629 11.3579 9.45544 11.2895 9.55914 11.2427C9.66283 11.1959 9.77531 11.1716 9.88909 11.1716H16.5128ZM22.4969 14.4383L21.6209 9.92768C21.082 10.7977 20.3301 11.5159 19.4363 12.0142C18.5424 12.5126 17.5362 12.7746 16.5128 12.7754H16.0918L19.1189 16.2146C19.3472 16.4366 19.6248 16.6013 19.929 16.6952C20.2333 16.7891 20.5554 16.8095 20.8691 16.7548C21.3916 16.6626 21.8562 16.367 22.1612 15.9328C22.4661 15.4986 22.5865 14.9612 22.4959 14.4383H22.4969Z" fill="white"/>
</svg>
