<svg width="25" height="25" viewBox="0 0 25 25" fill="none" xmlns="http://www.w3.org/2000/svg">
<path opacity="0.4" d="M23.0269 10.2873C22.643 13.2047 21.5237 16.4157 18.8643 19.0694C16.2048 21.7232 12.9995 22.8471 10.0821 23.2321L1.17285 14.3205C1.55674 11.4032 2.67604 8.19212 5.33553 5.53841C7.99503 2.8847 11.2003 1.76078 14.1234 1.37573L23.0339 10.2862L23.0269 10.2873Z" fill="white"/>
<path d="M23.786 3.73473C23.6539 2.95625 23.283 2.23811 22.7247 1.67978C22.1664 1.12145 21.4482 0.750565 20.6698 0.618496C16.9268 -0.0163133 9.87106 -0.306545 4.68158 4.88525C-0.507895 10.077 -0.219976 17.1305 0.414833 20.8734C0.547254 21.6527 0.91899 22.3714 1.47844 22.9298C2.0379 23.4883 2.75732 23.8587 3.53684 23.9896C4.84826 24.2133 6.17607 24.327 7.50642 24.3296C11.217 24.3296 15.8376 23.4046 19.5192 19.7229C24.7099 14.5334 24.4208 7.47767 23.786 3.73473ZM16.662 2.1159C17.9023 2.12028 19.14 2.22858 20.3622 2.43967C20.7624 2.50804 21.1315 2.69909 21.4184 2.98642C21.7053 3.27374 21.8959 3.64312 21.9637 4.04346C22.2022 5.4262 22.3068 6.82875 22.2759 8.23158L16.1717 2.12862C16.3336 2.11937 16.4943 2.11706 16.662 2.11706V2.1159ZM3.8398 22.1673C3.4395 22.0992 3.07026 21.9084 2.78315 21.6213C2.49603 21.3342 2.30524 20.965 2.23716 20.5647C1.99859 19.1819 1.89404 17.7794 1.92496 16.3766L8.02792 22.4795C6.62507 22.511 5.22247 22.4065 3.8398 22.1673ZM18.2126 18.4163C16.8701 19.7576 14.3656 21.6227 10.4226 22.2633L2.14119 13.9819C2.78178 10.0389 4.64689 7.53433 5.9882 6.19186C7.32951 4.8494 9.83406 2.98429 13.777 2.3437L22.0596 10.6263C21.419 14.5693 19.5539 17.0738 18.2126 18.4163ZM16.4527 7.95175C16.6261 8.12522 16.7234 8.36041 16.7234 8.60564C16.7234 8.85087 16.6261 9.08607 16.4527 9.25953L14.7946 10.9165L15.5277 11.6496C15.6191 11.7342 15.6925 11.8363 15.7434 11.95C15.7944 12.0636 15.8219 12.1863 15.8243 12.3108C15.8267 12.4354 15.8039 12.5591 15.7573 12.6746C15.7108 12.7901 15.6413 12.895 15.5533 12.983C15.4652 13.071 15.3602 13.1403 15.2447 13.1868C15.1291 13.2333 15.0054 13.2559 14.8809 13.2534C14.7564 13.2509 14.6337 13.2233 14.5201 13.1723C14.4065 13.1212 14.3044 13.0477 14.2199 12.9562L13.488 12.2243L12.0206 13.6916L12.7537 14.4247C12.8452 14.5092 12.9187 14.6113 12.9697 14.7249C13.0208 14.8385 13.0484 14.9612 13.0509 15.0857C13.0534 15.2102 13.0308 15.3339 12.9843 15.4495C12.9378 15.565 12.8685 15.67 12.7805 15.7581C12.6924 15.8462 12.5875 15.9156 12.4721 15.9622C12.3566 16.0087 12.2329 16.0315 12.1083 16.0291C11.9838 16.0267 11.8611 15.9992 11.7475 15.9483C11.6338 15.8973 11.5317 15.8239 11.4471 15.7325L10.7128 14.9983L9.05471 16.6564C8.96967 16.7459 8.86757 16.8175 8.75442 16.8669C8.64128 16.9163 8.51938 16.9426 8.39592 16.9442C8.27246 16.9458 8.14993 16.9226 8.03556 16.8761C7.92118 16.8296 7.81728 16.7607 7.72997 16.6733C7.64267 16.586 7.57372 16.4821 7.5272 16.3678C7.48068 16.2534 7.45753 16.1309 7.45911 16.0074C7.46069 15.8839 7.48697 15.762 7.53641 15.6489C7.58584 15.5358 7.65742 15.4337 7.74694 15.3486L9.40623 13.6916L8.67313 12.9585C8.51093 12.7829 8.42302 12.5513 8.42781 12.3123C8.43261 12.0733 8.52974 11.8455 8.69885 11.6765C8.86796 11.5075 9.09592 11.4106 9.33493 11.406C9.57394 11.4014 9.80544 11.4896 9.98091 11.6519L10.714 12.385L12.1802 10.9165L11.4471 10.1834C11.2847 10.0079 11.1966 9.77645 11.2012 9.53744C11.2058 9.29843 11.3027 9.07047 11.4717 8.90136C11.6406 8.73225 11.8685 8.63511 12.1075 8.63032C12.3465 8.62552 12.5781 8.71344 12.7537 8.87564L13.488 9.60989L15.1461 7.95175C15.3195 7.77876 15.5545 7.68161 15.7994 7.68161C16.0444 7.68161 16.2793 7.77876 16.4527 7.95175Z" fill="white"/>
</svg>
