<svg width="834" height="637" viewBox="0 0 834 637" fill="none" xmlns="http://www.w3.org/2000/svg">
<path d="M742.422 561.203V561.1L742.419 560.998C742.154 551.319 740.559 542.637 737.4 535.145C734.584 528.184 731.057 521.915 726.785 516.393C722.814 511.103 718.48 506.362 713.778 502.192C709.601 498.371 705.734 494.624 702.176 490.95C698.996 487.43 696.341 483.791 694.185 480.038C692.532 476.86 691.582 472.94 691.582 468.059C691.582 463.119 692.86 459.822 694.824 457.495L694.861 457.451L694.896 457.407C696.956 454.89 699.144 453.484 701.527 452.836C704.096 453.182 706.744 453.771 709.473 454.616C712.076 455.451 715.015 456.692 718.302 458.392L718.394 458.44L718.487 458.485C721.409 459.895 724.243 461.788 726.984 464.213L738.392 474.305L739.436 459.11L742.404 415.877L742.749 410.856L738.233 408.634C730.084 404.624 722.242 401.639 714.722 399.753C707.31 397.772 700.239 396.73 693.545 396.73C685.244 396.73 677.423 398.355 670.186 401.684L670.16 401.696L670.134 401.709C663.089 405.015 656.983 409.694 651.854 415.678L651.821 415.717L651.787 415.757C646.791 421.753 642.97 428.84 640.241 436.891L640.228 436.927L640.216 436.964C637.583 445.004 636.318 453.785 636.318 463.234C636.318 472.988 637.947 482.156 641.292 490.658L641.312 490.707L641.332 490.756C644.618 498.775 648.588 506.135 653.26 512.809L653.289 512.85L653.318 512.89C657.947 519.319 662.738 525.152 667.697 530.373L667.763 530.442L667.831 530.51L667.86 530.539L667.888 530.567L667.916 530.595L667.944 530.623L667.973 530.651L668.001 530.68L668.029 530.708L668.057 530.736L668.085 530.764L668.113 530.792L668.141 530.82L668.17 530.848L668.198 530.876L668.226 530.905L668.254 530.933L668.282 530.961L668.31 530.989L668.338 531.017L668.366 531.045L668.394 531.073L668.422 531.101L668.45 531.128L668.477 531.156L668.505 531.184L668.533 531.212L668.561 531.24L668.589 531.268L668.617 531.296L668.645 531.324L668.672 531.351L668.7 531.379L668.728 531.407L668.756 531.435L668.784 531.462L668.811 531.49L668.839 531.518L668.867 531.546L668.894 531.573L668.922 531.601L668.95 531.629L668.977 531.656L669.005 531.684L669.033 531.711L669.06 531.739L669.088 531.767L669.115 531.794L669.143 531.822L669.17 531.849L669.198 531.877L669.225 531.904L669.253 531.932L669.28 531.959L669.308 531.987L669.335 532.014L669.363 532.041L669.39 532.069L669.417 532.096L669.445 532.124L669.472 532.151L669.499 532.178L669.527 532.206L669.554 532.233L669.581 532.26L669.609 532.288L669.636 532.315L669.663 532.342L669.69 532.369L669.718 532.396L669.745 532.424L669.772 532.451L669.799 532.478L669.826 532.505L669.853 532.532L669.881 532.559L669.908 532.587L669.935 532.614L669.962 532.641L669.989 532.668L670.016 532.695L670.043 532.722L670.07 532.749L670.097 532.776L670.124 532.803L670.151 532.83L670.178 532.857L670.205 532.884L670.232 532.911L670.259 532.938L670.286 532.964L670.312 532.991L670.339 533.018L670.366 533.045L670.393 533.072L670.42 533.099L670.447 533.125L670.473 533.152L670.5 533.179L670.527 533.206L670.554 533.232L670.58 533.259L670.607 533.286L670.634 533.313L670.66 533.339L670.687 533.366L670.714 533.393L670.74 533.419L670.767 533.446L670.793 533.472L670.82 533.499L670.847 533.525L670.873 533.552L670.9 533.579L670.926 533.605L670.953 533.632L670.979 533.658L671.006 533.685L671.032 533.711L671.059 533.737L671.085 533.764L671.111 533.79L671.138 533.817L671.164 533.843L671.191 533.869L671.217 533.896L671.243 533.922L671.269 533.948L671.296 533.975L671.322 534.001L671.348 534.027L671.375 534.053L671.401 534.08L671.427 534.106L671.453 534.132L671.479 534.158L671.506 534.184L671.532 534.211L671.558 534.237L671.584 534.263L671.61 534.289L671.636 534.315L671.662 534.341L671.688 534.367L671.714 534.393L671.74 534.419L671.766 534.445L671.792 534.471L671.818 534.497L671.844 534.523L671.87 534.549L671.896 534.575L671.922 534.601L671.948 534.627L671.974 534.653L672 534.679L672.026 534.705L672.052 534.73L672.077 534.756L672.103 534.782L672.129 534.808L672.155 534.834L672.181 534.859L672.206 534.885L672.232 534.911L672.258 534.937L672.284 534.962L672.309 534.988L672.335 535.014L672.361 535.039L672.386 535.065L672.412 535.091L672.437 535.116L672.463 535.142L672.489 535.167L672.514 535.193L672.54 535.219L672.565 535.244L672.591 535.27L672.616 535.295L672.642 535.321L672.667 535.346L672.693 535.372L672.718 535.397L672.744 535.422L672.769 535.448L672.794 535.473L672.82 535.499L672.845 535.524L672.87 535.549L672.896 535.575L672.921 535.6L672.946 535.625L672.972 535.651L672.997 535.676L673.022 535.701L673.047 535.726L673.073 535.752L673.098 535.777L673.123 535.802L673.148 535.827L673.173 535.852L673.199 535.877L673.224 535.903L673.249 535.928L673.274 535.953L673.299 535.978L673.324 536.003L673.349 536.028L673.374 536.053L673.399 536.078L673.424 536.103L673.449 536.128L673.474 536.153L673.499 536.178L673.524 536.203L673.549 536.228L673.574 536.253L673.599 536.278L673.624 536.303L673.649 536.327L673.673 536.352L673.698 536.377L673.723 536.402L673.748 536.427L673.773 536.451L673.797 536.476L673.822 536.501L673.847 536.526L673.872 536.55L673.896 536.575L673.921 536.6L673.946 536.625L673.97 536.649L673.995 536.674L674.02 536.698L674.044 536.723L674.069 536.748L674.093 536.772L674.118 536.797L674.143 536.821L674.167 536.846L674.192 536.87L674.216 536.895L674.241 536.919L674.265 536.944L674.29 536.968L674.314 536.993L674.338 537.017L674.363 537.042L674.387 537.066L674.412 537.09L674.436 537.115L674.46 537.139L674.485 537.163L674.509 537.188L674.533 537.212L674.558 537.236L674.582 537.261L674.606 537.285L674.63 537.309L674.655 537.333L674.679 537.358L674.703 537.382L674.727 537.406L674.751 537.43L674.775 537.454L674.8 537.478L674.824 537.503L674.848 537.527L674.872 537.551L674.896 537.575L674.944 537.623L674.992 537.671L675.016 537.695L675.04 537.719L675.064 537.743L675.088 537.767L675.136 537.815L675.16 537.839L675.184 537.862L675.231 537.91L675.279 537.958L675.327 538.005L675.374 538.053L675.422 538.1L675.445 538.124L675.469 538.148L675.493 538.172L675.516 538.195L675.564 538.242L675.611 538.29L675.634 538.313L675.658 538.337L675.682 538.36L675.705 538.384L675.752 538.431L675.776 538.454L675.799 538.478L675.846 538.525L675.893 538.572L675.916 538.595L675.94 538.618L675.986 538.665L676.033 538.712L676.08 538.758L676.126 538.805L676.173 538.851L676.196 538.875L676.219 538.898L676.242 538.921L676.265 538.944L676.312 538.991L676.358 539.037L676.381 539.06L676.404 539.083L676.45 539.129L676.496 539.175L676.519 539.198L676.542 539.221L676.565 539.244L676.588 539.267L676.634 539.313L676.657 539.336L676.68 539.359L676.725 539.404L676.771 539.45L676.817 539.496L676.862 539.541L676.908 539.587L676.93 539.609L676.953 539.632L676.976 539.655L676.999 539.677L677.044 539.723L677.089 539.768L677.112 539.79L677.134 539.813L677.157 539.836L677.179 539.858L677.224 539.903L677.247 539.926L677.269 539.948L677.292 539.971L677.314 539.993L677.359 540.038L677.404 540.083L677.426 540.105L677.449 540.127L677.493 540.172L677.516 540.194L677.538 540.217L677.582 540.261L677.627 540.306L677.649 540.328L677.671 540.35L677.694 540.372L677.716 540.395L677.76 540.439L677.804 540.483L677.826 540.505L677.848 540.527L677.892 540.571L677.937 540.615L677.959 540.637L677.981 540.659L678.002 540.681L678.024 540.703L678.068 540.747L678.09 540.769L678.112 540.791L678.156 540.835L678.2 540.878L678.243 540.922L678.287 540.966L678.33 541.009L678.352 541.031L678.374 541.052L678.395 541.074L678.417 541.096L678.46 541.139L678.503 541.182L678.525 541.204L678.547 541.225L678.568 541.247L678.59 541.269L678.633 541.312L678.654 541.333L678.676 541.355L678.719 541.398L678.762 541.44L678.783 541.462L678.804 541.483L678.826 541.505L678.847 541.526L678.89 541.569L678.911 541.59L678.932 541.611L678.975 541.654L679.017 541.696L679.039 541.718L679.06 541.739L679.081 541.76L679.102 541.781L679.145 541.823L679.187 541.866L679.208 541.887L679.229 541.908L679.25 541.929L679.271 541.95L679.313 541.992L679.334 542.013L679.355 542.034L679.376 542.055L679.397 542.076L679.439 542.118L679.46 542.139L679.481 542.16L679.522 542.201L679.564 542.243L679.606 542.285L679.647 542.326L679.689 542.368L679.709 542.388L679.73 542.409L679.751 542.43L679.772 542.45L679.813 542.492L679.854 542.533L679.875 542.554L679.895 542.574L679.916 542.595L679.936 542.615L679.977 542.656L679.998 542.677L680.018 542.697L680.039 542.718L680.059 542.738L680.1 542.779L680.121 542.8L680.141 542.82L680.161 542.84L680.182 542.861L680.214 542.893C683.063 545.854 685.001 548.858 686.196 551.892L686.247 552.021L686.303 552.149C687.703 555.349 688.271 558.097 688.271 560.461C688.271 563.435 687.587 565.976 686.291 568.244L686.268 568.283L686.247 568.323C685.419 569.813 684.346 571.058 682.961 572.088C679.975 571.789 676.884 571.247 673.684 570.448C670.314 569.577 666.491 568.237 662.196 566.38C658.322 564.705 654.381 562.297 650.379 559.073L638.704 549.669L638.178 564.651L636.694 606.956L636.573 610.395L639.102 612.73C642.964 616.295 647.314 619.077 652.128 621.032L652.257 621.085L652.388 621.132C656.743 622.716 660.922 623.937 664.916 624.764C669.45 625.725 674.1 626.269 678.858 626.405L678.965 626.408H679.072C685.683 626.408 692.56 625.354 699.669 623.342L699.732 623.324L699.794 623.305C707.305 621.038 714.167 617.354 720.342 612.308C726.862 607.083 732.078 600.305 736.075 592.18C740.44 583.439 742.422 573.002 742.422 561.203Z" fill="#12DADA" stroke="#353535" stroke-width="15"/>
<path d="M634.432 352.408L634.571 344.455L626.624 344.784L581.722 346.639L574.302 346.946L574.535 354.368L576.324 411.354C573.61 409.409 570.96 407.789 568.382 406.556L568.288 406.511L568.193 406.469C564.136 404.666 559.956 403.562 555.681 403.245L555.404 403.225H555.127C547.028 403.225 539.457 405.958 532.547 410.957C525.576 416 519.766 423.235 514.936 432.224C510.065 441.29 506.279 452.32 503.456 465.148L503.45 465.176L503.444 465.203C500.712 478.085 499.385 492.852 499.385 509.436C499.385 530.908 500.95 549.227 504.192 564.268L504.195 564.281C507.378 578.923 511.535 591.18 516.825 600.81L516.844 600.845L516.864 600.881C522.205 610.361 528.553 617.792 536.146 622.499L536.192 622.528L536.239 622.556C543.419 626.864 550.984 629.191 558.838 629.191H559.371L559.899 629.116C563.558 628.593 567.222 627.255 570.833 625.377L570.843 625.372L570.853 625.366C573.518 623.97 576.297 622.064 579.17 619.757V626.408H586.67H622.295H629.666L629.794 619.039L634.432 352.408ZM579.358 501.483L579.36 501.535L579.362 501.588C579.73 510.301 580.037 518.829 580.283 527.172C580.28 534.94 579.919 542.183 579.212 548.908C578.512 555.434 577.366 560.944 575.844 565.511L575.818 565.588L575.794 565.665C574.399 570.174 572.714 573.319 570.958 575.43C569.702 576.844 568.568 577.268 567.188 577.268C566.228 577.268 565.471 577.01 564.618 576.229C563.419 575.004 562.146 573.106 560.96 570.251C559.672 567.021 558.555 563.256 557.642 558.916C556.715 554.515 556.013 549.849 555.543 544.913C555.062 539.741 554.701 534.569 554.459 529.398C554.338 524.164 554.277 519.18 554.277 514.445C554.277 507.607 554.399 500.58 554.644 493.362C554.879 486.439 555.578 480.207 556.709 474.64C557.918 469.283 559.577 465.327 561.474 462.503C562.777 460.695 564.202 459.973 566.445 459.973C568.617 459.973 570.147 460.696 571.644 463.281L571.703 463.383L571.765 463.483C573.97 467.03 575.82 472.006 577.07 478.711L577.073 478.722L577.075 478.733C578.348 485.447 579.12 493.021 579.358 501.483Z" fill="#9951FF" stroke="#353535" stroke-width="15"/>
<path d="M433.77 614.553L432.545 623.52L441.584 623.059L485.187 620.832L491.821 620.493L492.286 613.867C492.779 606.847 493.333 599.27 493.949 591.137C494.696 582.794 495.318 574.21 495.815 565.385C496.436 556.437 496.933 547.367 497.306 538.177C497.806 528.911 498.057 519.763 498.057 510.734C498.057 498.261 497.49 486.204 496.351 474.565C495.197 462.767 493.066 452.126 489.889 442.708C486.802 433.067 482.437 424.917 476.566 418.605C470.112 411.667 461.77 408.234 452.148 408.234C448.706 408.234 445.007 408.676 441.099 409.479C436.592 410.273 432.139 411.953 427.761 414.354L427.715 414.379L427.67 414.405C424.272 416.33 420.952 418.792 417.7 421.723L417.837 418.237L409.837 418.442L366.419 419.555L358.929 419.747L359.114 427.238C359.361 437.238 359.546 446.367 359.669 454.626L359.67 454.683L359.671 454.741C359.917 462.842 360.039 470.311 360.039 477.15V477.217L360.04 477.284C360.163 484.173 360.225 490.622 360.225 496.633V496.711L360.226 496.789C360.349 502.677 360.41 508.438 360.41 514.074C360.41 520.334 360.349 526.719 360.226 533.23L360.225 533.3V533.371C360.225 539.756 360.163 546.641 360.04 554.027C359.917 561.417 359.732 569.553 359.485 578.436L359.484 578.488L359.483 578.539C359.36 587.263 359.114 597.234 358.744 608.456L358.491 616.135L366.174 616.203L408.107 616.574L416.928 616.652L415.587 607.934C415.416 606.827 415.24 604.544 415.117 600.788C415.116 596.808 415.054 592.302 414.932 587.274V587.246V587.217V587.187V587.157V587.127V587.098V587.068V587.038V587.008V586.978V586.949V586.919V586.889V586.859V586.829V586.8V586.77V586.74V586.71V586.68V586.65V586.621V586.591V586.561V586.531V586.501V586.471V586.441V586.411V586.382V586.352V586.322V586.292V586.262V586.232V586.202V586.172V586.142V586.112V586.082V586.052V586.022V585.992V585.962V585.932V585.902V585.872V585.842V585.812V585.782V585.752V585.722V585.692V585.662V585.632V585.602V585.572V585.542V585.512V585.482V585.452V585.422V585.392V585.362V585.331V585.301V585.271V585.241V585.211V585.181V585.151V585.121V585.09V585.06V585.03V585V584.97V584.94V584.909V584.879V584.849V584.819V584.789V584.758V584.728V584.698V584.668V584.638V584.607V584.577V584.547V584.517V584.486V584.456V584.426V584.396V584.365V584.335V584.305V584.274V584.244V584.214V584.183V584.153V584.123V584.092V584.062V584.032V584.001V583.971V583.941V583.91V583.88V583.85V583.819V583.789V583.758V583.728V583.698V583.667V583.637V583.606V583.576V583.546V583.515V583.485V583.454V583.424V583.393V583.363V583.332V583.302V583.271V583.241V583.21V583.18V583.149V583.119V583.088V583.058V583.027V582.997V582.966V582.936V582.905V582.875V582.844V582.813V582.783V582.752V582.722V582.691V582.661V582.63V582.599V582.569V582.538V582.507V582.477V582.446V582.416V582.385V582.354V582.324V582.293V582.262V582.232V582.201V582.17V582.14V582.109V582.078V582.047V582.017V581.986V581.955V581.925V581.894V581.863V581.832V581.802V581.771V581.74V581.709V581.678V581.648V581.617V581.586V581.555V581.524V581.494V581.463V581.432V581.401V581.37V581.34V581.309V581.278V581.247V581.216V581.185V581.154V581.123V581.093V581.062V581.031V581V580.969V580.938V580.907V580.876V580.845V580.814V580.783V580.752V580.722V580.691V580.66V580.629V580.598V580.567V580.536V580.505V580.474V580.443V580.412V580.381V580.35V580.319V580.288V580.257V580.226V580.194V580.163V580.132V580.101V580.07V580.039V580.008V579.977V579.946V579.915V579.884V579.853V579.821V579.79V579.759V579.728V579.697V579.666V579.635V579.603V579.572V579.541V579.51V579.479V579.448V579.416V579.385V579.354V579.323V579.292V579.26V579.229V579.198V579.167V579.135V579.104V579.073V579.042V579.01V578.979V578.948V578.917V578.885V578.854V578.823V578.791V578.76V578.729V578.697V578.666V578.635V578.603V578.572V578.541V578.509V578.478V578.447V578.415V578.384V578.352V578.321V578.29V578.258V578.227V578.195V578.164V578.133V578.101V578.07V578.038V578.007V577.975V577.944V577.913V577.881V577.85V577.818V577.787V577.755V577.724V577.692V577.661V577.629V577.598V577.566V577.535V577.503V577.471V577.44V577.408V577.377V577.345V577.314V577.282V577.25V577.219V577.187V577.156V577.124V577.092V577.061V577.029V576.998V576.966V576.934V576.903V576.871V576.839V576.808V576.776V576.744V576.713V576.681V576.649V576.618V576.586V576.554V576.523V576.491V576.459V576.427V576.396V576.364V576.332V576.3V576.269V576.237V576.205V576.173V576.142V576.11V576.078V576.046V576.014V575.983V575.951V575.919V575.887V575.855V575.823V575.792V575.76V575.728V575.696V575.664V575.632V575.6V575.569V575.537V575.505V575.473V575.441V575.409V575.377V575.345V575.313V575.281V575.249V575.217V575.185V575.154V575.122V575.09V575.058V575.026V574.994V574.962V574.93V574.898V574.866V574.834V574.802V574.77V574.738V574.706V574.674V574.641V574.609V574.577V574.545V574.513V574.481V574.449V574.417V574.385V574.353V574.321V574.289V574.256V574.224V574.192V574.16V574.128V574.096V574.064V574.031V573.999V573.967V573.935V573.903V573.871V573.838V573.806V573.774V573.742V573.71V573.677V573.645V573.613V573.581V573.549V573.516V573.484V573.452V573.419V573.387V573.355V573.323V573.29V573.258V573.226V573.193V573.161V573.129V573.097V573.064V573.032V573V572.967V572.935V572.903V572.87V572.838V572.805V572.773V572.741V572.708V572.676V572.644V572.611V572.579V572.546V572.514V572.481V572.449V572.417V572.384V572.352V572.319V572.287V572.254V572.222V572.189V572.157V572.124V572.092V572.059V572.027V571.994V571.962V571.929V571.897V571.864V571.832V571.799V571.767V571.734V571.702V571.669V571.636V571.604V571.571V571.539V571.506V571.473V571.441V571.408V571.375V571.342V571.308V571.275V571.242V571.208V571.175V571.142V571.108V571.075V571.042V571.009V570.975V570.942V570.909V570.875V570.842V570.809V570.776V570.743V570.709V570.676V570.643V570.61V570.576V570.543V570.51V570.477V570.444V570.411V570.377V570.344V570.311V570.278V570.245V570.212V570.178V570.145V570.112V570.079V570.046V570.013V569.98V569.947V569.914V569.881V569.847V569.814V569.781V569.748V569.715V569.682V569.649V569.616V569.583V569.55V569.517V569.484V569.451V569.418V569.385V569.352V569.319V569.286V569.253V569.22V569.187V569.154V569.121V569.088V569.055V569.022V568.989V568.957V568.924V568.891V568.858V568.825V568.792V568.759V568.726V568.693V568.66V568.628V568.595V568.562V568.529V568.496V568.463V568.43V568.398V568.365V568.332V568.299V568.266V568.234V568.201V568.168V568.135V568.102V568.07V568.037V568.004V567.971V567.939V567.906V567.873V567.84V567.808V567.775V567.742V567.71V567.677V567.644V567.611V567.579V567.546V567.513V567.481V567.448V567.415V567.383V567.35V567.318V567.285V567.252V567.22V567.187V567.154V567.122V567.089V567.057V567.024V566.991V566.959V566.926V566.894V566.861V566.829V566.796V566.763V566.731V566.698V566.666V566.633V566.601V566.568V566.536V566.503V566.471V566.438V566.406V566.373V566.341V566.308V566.276V566.244V566.211V566.179V566.146V566.114V566.081V566.049V566.017V565.984V565.952V565.919V565.887V565.855V565.822V565.79V565.757V565.725V565.693V565.66V565.628V565.596V565.563V565.531V565.499V565.466V565.434V565.402V565.369V565.337V565.305V565.273V565.24V565.208V565.176V565.143V565.111V565.079V565.047V565.014V564.982V564.95V564.918V564.886V564.853V564.821V564.789V564.757V564.725V564.692V564.66V564.628V564.596V564.564V564.532V564.499V564.467V564.435V564.403V564.371V564.339V564.307V564.275V564.242V564.21V564.178V564.146V564.114V564.082V564.05V564.018V563.986V563.954V563.922V563.89V563.858V563.826V563.794V563.762V563.73V563.698V563.666V563.634V563.602V563.57V563.538V563.506V563.474V563.442V563.41V563.378V563.346V563.314V563.282V563.25V563.218V563.186V563.154V563.122V563.09V563.059V563.027V562.995V562.963V562.931V562.899V562.867V562.835V562.804V562.772V562.74V562.708V562.676V562.644V562.613V562.581V562.549V562.517V562.485V562.454V562.422V562.39V562.358V562.327V562.295V562.263V562.231V562.2V562.168V562.136V562.104V562.073V562.041V562.009V561.978V561.946V561.914V561.883V561.851V561.819V561.787V561.756V561.724V561.693V561.661V561.629V561.598V561.566V561.534V561.503V561.471V561.44V561.408V561.376V561.345V561.313V561.282V561.25V561.218V561.187V561.155V561.124V561.092V561.061V561.029V560.998V560.966V560.935V560.903V560.872V560.84V560.809V560.777V560.746V560.714V560.683V560.651V560.62V560.588V560.557V560.525V560.494V560.463V560.431V560.4V560.368V560.337V560.306V560.274V560.243V560.211V560.18V560.149V560.117V560.086V560.055V560.023V559.992V559.96V559.929V559.898V559.867V559.835V559.804V559.773V559.741V559.71V559.679V559.647V559.616V559.585V559.554V559.522V559.491V559.46V559.429V559.397V559.366V559.335V559.304V559.272V559.241V559.21V559.179V559.148V559.116V559.085V559.054V559.023V558.992V558.961V558.929V558.898V558.867V558.836V558.805V558.774V558.743V558.712V558.68V558.649V558.618V558.587V558.556V558.525V558.494V558.463V558.432V558.401V558.37V558.339V558.308V558.277V558.246V558.215V558.184V558.153V558.122V558.091V558.06V558.029V557.998V557.967V557.936V557.905V557.874V557.843V557.812V557.781V557.75V557.719V557.688V557.657V557.626V557.595V557.564V557.534V557.503V557.472V557.441V557.41V557.379V557.348V557.317V557.287V557.256V557.225V557.194V557.163V557.132V557.102V557.071V557.04V557.009V556.978V556.948V556.917V556.886V556.855V556.824V556.794V556.763V556.732V556.701V556.671V556.64V556.609V556.578V556.548V556.517V556.486V556.456V556.425V556.394V556.364V556.333V556.302V556.272V556.241V556.21V556.18V556.149V556.118V556.088V556.057V556.026V555.996V555.965V555.935V555.904V555.873V555.843V555.812V555.782V555.751V555.721V555.69V555.659V555.629V555.598V555.568V555.537V555.507V555.476V555.446V555.415V555.385V555.354V555.324V555.293V555.263V555.232V555.202V555.171V555.141V555.111V555.08C414.932 540.704 415.177 528.411 415.663 518.184C416.273 507.83 417.12 499.184 418.186 492.197C419.259 485.164 420.469 479.78 421.754 475.898C423.217 471.865 424.633 469.189 425.863 467.549C427.143 465.842 428.104 465.217 428.604 464.996C429.909 464.501 431.308 464.24 432.852 464.24C433.494 464.24 434.343 464.375 435.447 464.817L435.652 464.899L435.759 464.935C435.792 464.958 435.849 465.001 435.928 465.072C436.185 465.301 436.605 465.757 437.139 466.58L437.188 466.654L437.238 466.727C438.057 467.924 439.094 470.307 439.994 474.468L439.998 474.489L440.003 474.51C440.822 478.196 441.309 483.577 441.309 490.881C441.309 513.133 440.694 534.381 439.467 554.626L439.465 554.649L439.464 554.672C438.362 574.882 436.464 594.842 433.77 614.553Z" fill="#1C64FF" stroke="#353535" stroke-width="15"/>
<path d="M353.962 415.293L352.915 424.897C352.186 431.574 351.577 438.758 351.088 446.454C350.597 454.195 350.167 462.249 349.797 470.616L349.797 470.621C349.43 478.829 349.184 487.226 349.062 495.812L349.062 495.814C348.939 504.314 348.877 512.689 348.877 520.939C348.877 530.537 348.938 539.825 349.061 548.802C349.307 557.653 349.553 565.828 349.799 573.327C350.166 580.787 350.532 587.382 350.898 593.117C351.383 598.797 351.911 602.982 352.453 605.802L354.168 614.719H345.088C340.273 614.719 335.265 614.839 330.064 615.08C325.527 615.326 320.432 615.633 314.775 616.002C309.247 616.362 303.718 616.903 298.187 617.625L288.866 618.84L289.75 609.482C291.843 587.325 293.255 567.114 293.99 548.843L353.962 415.293ZM353.962 415.293L344.398 416.659M353.962 415.293L344.398 416.659M344.398 416.659C344.02 416.713 343.297 416.77 342.119 416.77H341.704L341.291 416.815C340.542 416.899 339.477 416.955 338.037 416.955H338.028H338.018H338.009H337.999H337.99H337.98H337.971H337.962H337.952H337.943H337.933H337.924H337.914H337.905H337.895H337.886H337.876H337.867H337.857H337.848H337.838H337.829H337.819H337.81H337.8H337.791H337.781H337.772H337.762H337.753H337.743H337.733H337.724H337.714H337.705H337.695H337.686H337.676H337.666H337.657H337.647H337.638H337.628H337.618H337.609H337.599H337.59H337.58H337.57H337.561H337.551H337.541H337.532H337.522H337.512H337.503H337.493H337.483H337.474H337.464H337.454H337.445H337.435H337.425H337.416H337.406H337.396H337.387H337.377H337.367H337.357H337.348H337.338H337.328H337.318H337.309H337.299H337.289H337.279H337.27H337.26H337.25H337.24H337.231H337.221H337.211H337.201H337.192H337.182H337.172H337.162H337.152H337.142H337.133H337.123H337.113H337.103H337.093H337.083H337.074H337.064H337.054H337.044H337.034H337.024H337.014H337.005H336.995H336.985H336.975H336.965H336.955H336.945H336.935H336.925H336.916H336.906H336.896H336.886H336.876H336.866H336.856H336.846H336.836H336.826H336.816H336.806H336.796H336.786H336.776H336.766H336.756H336.746H336.736H336.726H336.716H336.706H336.696H336.686H336.676H336.666H336.656H336.646H336.636H336.626H336.616H336.606H336.596H336.586H336.576H336.566H336.556H336.546H336.536H336.526H336.516H336.505H336.495H336.485H336.475H336.465H336.455H336.445H336.435H336.425H336.414H336.404H336.394H336.384H336.374H336.364H336.354H336.343H336.333H336.323H336.313H336.303H336.293H336.282H336.272H336.262H336.252H336.242H336.232H336.221H336.211H336.201H336.191H336.18H336.17H336.16H336.15H336.14H336.129H336.119H336.109H336.099H336.088H336.078H336.068H336.057H336.047H336.037H336.027H336.016H336.006H335.996H335.985H335.975H335.965H335.954H335.944H335.934H335.923H335.913H335.903H335.892H335.882H335.872H335.861H335.851H335.841H335.83H335.82H335.81H335.799H335.789H335.778H335.768H335.758H335.747H335.737H335.726H335.716H335.706H335.695H335.685H335.674H335.664H335.653H335.643H335.633H335.622H335.612H335.601H335.591H335.58H335.57H335.559H335.549H335.538H335.528H335.517H335.507H335.496H335.486H335.475H335.465H335.454H335.444H335.433H335.423H335.412H335.402H335.391H335.381H335.37H335.359H335.349H335.338H335.328H335.317H335.307H335.296H335.285H335.275H335.264H335.254H335.243H335.232H335.222H335.211H335.201H335.19H335.179H335.169H335.158H335.147H335.137H335.126H335.115H335.105H335.094H335.083H335.073H335.062H335.051H335.041H335.03H335.019H335.009H334.998H334.987H334.976H334.966H334.955H334.944H334.934H334.923H334.912H334.901H334.891H334.88H334.869H334.858H334.848H334.837H334.826H334.815H334.805H334.794H334.783H334.772H334.761H334.751H334.74H334.729H334.718H334.707H334.697H334.686H334.675H334.664H334.653H334.642H334.631H334.621H334.61H334.599H334.588H334.577H334.566H334.555H334.545H334.534H334.523H334.512H334.501H334.49H334.479H334.468H334.457H334.446H334.436H334.425H334.414H334.403H334.392H334.381H334.37H334.359H334.348H334.337H334.326H334.315H334.304H334.293H334.282H334.271H334.26H334.249H334.238H334.227H334.216H334.205H334.194H334.183H334.172H334.161H334.15H334.139H334.128H334.117H334.106H334.095H334.084H334.073H334.062H334.051H334.039H334.028H334.017H334.006H333.995H333.984H333.973H333.962H333.951H333.94H333.928H333.917H333.906H333.895H333.884H333.873H333.862H333.85H333.839H333.828H333.817H333.806H333.795H333.784H333.772H333.761H333.75H333.739H333.728H333.716H333.705H333.694H333.683H333.672H333.66H333.649H333.638H333.627H333.615H333.604H333.593H333.582H333.57H333.559H333.548H333.537H333.525H333.514H333.503H333.491H333.48H333.469H333.458H333.446H333.435H333.424H333.412H333.401H333.39H333.378H333.367H333.356H333.344H333.333H333.322H333.31H333.299H333.288H333.276H333.265H333.254H333.242H333.231H333.219H333.208H333.197H333.185H333.174H333.162H333.151H333.14H333.128H333.117H333.105H333.094H333.082H333.071H333.06H333.048H333.037H333.025H333.014H333.002H332.991H332.979H332.968H332.956H332.945H332.933H332.922H332.91H332.899H332.887H332.876H332.864H332.853H332.841H332.83H332.818H332.807H332.795H332.784H332.772H332.76H332.749H332.737H332.726H332.714H332.703H332.691H332.679H332.668H332.656C328.589 416.955 323.692 416.835 317.949 416.591C312.501 416.354 306.399 415.818 299.631 414.972L289.952 413.762L291.27 423.427C291.981 428.64 292.585 435.009 293.072 442.565L293.075 442.606L293.078 442.646C293.564 449.081 293.992 457.025 294.361 466.495L294.363 466.546M344.398 416.659L294.363 466.546M294.363 466.546L294.366 466.597M294.363 466.546L294.366 466.597M294.366 466.597C294.852 475.832 295.098 486.704 295.098 499.23C295.098 513.828 294.73 530.362 293.99 548.841L294.366 466.597ZM361.736 383.544L361.753 383.5L361.769 383.456C363.338 379.221 364.092 374.745 364.092 370.09C364.092 365.588 363.348 361.258 361.797 357.165C360.323 352.825 357.954 348.99 354.726 345.742C351.463 342.333 347.37 339.875 342.724 338.207C337.921 336.312 332.451 335.5 326.533 335.5C320.588 335.5 315.081 336.32 310.196 338.194C305.521 339.866 301.394 342.317 298.037 345.675L297.969 345.743L297.902 345.813C294.78 349.099 292.493 352.954 291.043 357.286C289.643 361.348 288.975 365.634 288.975 370.09C288.975 374.574 289.554 378.885 290.768 382.982L290.816 383.145L290.872 383.305C292.336 387.535 294.631 391.304 297.717 394.552L297.849 394.692L297.989 394.824C301.314 397.983 305.328 400.337 309.85 401.995L309.887 402.008L309.924 402.021C314.799 403.751 320.405 404.494 326.533 404.494C332.233 404.494 337.526 403.735 342.252 402.008C346.874 400.363 350.976 398.015 354.336 394.824L354.405 394.758L354.473 394.69C357.677 391.486 360.117 387.755 361.736 383.544Z" fill="#37A970" stroke="#353535" stroke-width="15"/>
<path d="M226.293 624.75L226.447 616.906C226.818 597.977 227.251 578.741 227.746 559.196C227.869 550.924 227.992 542.159 228.116 532.9L228.117 532.85L228.118 532.8C228.248 527.928 228.361 523.021 228.456 518.08C226.768 530.351 225.079 543.116 223.39 556.374C221.048 575.729 218.953 594.959 217.104 614.064L216.43 621.023L209.441 620.839L174.187 619.911L167.925 619.747L166.972 613.555C164.003 594.254 161.095 575.263 158.25 556.581L158.246 556.557L158.242 556.532C156.508 544.63 154.8 533.107 153.116 521.961C153.119 522.278 153.122 522.595 153.125 522.912M226.293 624.75L145.625 522.98M226.293 624.75L234.136 624.55M226.293 624.75L234.136 624.55M153.125 522.912L145.625 522.98M153.125 522.912C153.125 522.912 153.125 522.912 153.125 522.912L145.625 522.98M153.125 522.912C153.248 536.378 153.372 549.103 153.495 561.087M145.625 522.98C145.749 536.464 145.872 549.204 145.996 561.203M153.495 561.087C153.495 561.074 153.495 561.061 153.494 561.049L145.996 561.203M153.495 561.087C153.742 573.035 154.05 583.798 154.418 593.382M153.495 561.087C153.495 561.1 153.496 561.113 153.496 561.126L145.996 561.203M145.996 561.203L154.418 593.382M233.945 617.053C233.994 614.556 234.044 612.054 234.095 609.546L233.755 609.555L233.945 617.053ZM233.945 617.053L241.444 617.2C241.446 617.087 241.448 616.975 241.451 616.862L233.945 617.053ZM277.734 615.939L270.289 616.845C270.26 616.608 270.232 616.37 270.203 616.131L277.734 615.939ZM277.734 615.939L277.544 608.442L276.917 608.458C277.177 611.105 277.45 613.599 277.734 615.939ZM274.58 352.648C274.499 355.189 274.419 357.71 274.342 360.212C274.68 360.178 275.018 360.143 275.357 360.108L274.58 352.648ZM274.58 352.648L267.084 352.408C267.074 352.72 267.064 353.032 267.054 353.344C269.517 353.146 272.026 352.915 274.58 352.648ZM210.381 352.648C212.693 352.859 215.185 353.069 217.855 353.279C217.857 353.254 217.858 353.229 217.86 353.204L210.381 352.648ZM210.381 352.648L209.702 360.118C209.74 360.121 209.779 360.125 209.817 360.128C210.009 357.624 210.196 355.13 210.381 352.648ZM98.6068 382.375C98.8525 391.718 99.0372 402.614 99.1605 415.066L99.1609 415.104L99.1616 415.141C99.4079 427.578 99.5312 440.949 99.5312 455.256C99.5312 469.19 99.4079 483.559 99.1612 498.363C98.9152 513.122 98.4233 527.631 97.6858 541.89L97.6841 541.922L97.6827 541.954C97.0693 556.187 96.1497 569.79 94.9257 582.764L94.9224 582.799L94.9195 582.834C93.821 595.771 92.3622 607.356 90.5536 617.605L88.904 626.953L98.3799 626.395L148.849 623.427L156.775 622.96L155.858 615.073C155.272 610.038 154.787 602.839 154.418 593.386L98.6068 382.375ZM98.6068 382.375C98.6071 382.385 98.6075 382.394 98.6078 382.403L106.104 382.15L98.6061 382.348C98.6064 382.357 98.6066 382.366 98.6068 382.375ZM97.9395 618.908L97.499 611.421L99.1798 611.322C98.7866 613.922 98.3732 616.451 97.9395 618.908ZM97.9395 618.908L105.325 620.212C105.428 619.63 105.529 619.045 105.63 618.456L97.9395 618.908ZM148.408 615.939L140.958 616.806C140.942 616.665 140.926 616.524 140.91 616.381L148.408 615.939ZM148.408 615.939L147.968 608.452L147.719 608.467C147.929 611.301 148.158 613.792 148.408 615.939ZM105.176 351.906C107.616 352.288 110.127 352.645 112.708 352.98C112.696 352.552 112.684 352.127 112.673 351.704L105.176 351.906ZM105.176 351.906L104.018 359.316C104.473 359.387 104.93 359.458 105.39 359.527C105.314 356.919 105.243 354.379 105.176 351.906ZM154.418 593.382L146.924 593.674L154.418 593.382ZM234.136 624.55L277.925 623.437L286.176 623.227L285.18 615.034C284.094 606.11 283.178 594.791 282.441 581.034L234.136 624.55ZM203.467 344.489L211.06 345.179C213.741 345.423 216.675 345.668 219.862 345.913L219.9 345.916L219.937 345.919C222.608 346.151 225.805 346.33 229.544 346.451C233.411 346.572 237.66 346.633 242.295 346.633C246.906 346.633 251.892 346.572 257.254 346.451M203.467 344.489L257.254 346.451M203.467 344.489L202.901 352.093M203.467 344.489L202.901 352.093M257.254 346.451C257.226 346.452 257.197 346.454 257.169 346.455L257.51 353.947L257.339 346.449C257.311 346.45 257.282 346.45 257.254 346.451ZM202.901 352.093C201.544 370.362 200 389.252 198.272 408.762L202.901 352.093ZM188.548 497.056C190.091 507.339 191.431 516.042 192.568 523.166C193.803 514.638 194.986 505.906 196.119 496.971C195.978 496.035 195.836 495.086 195.692 494.124C195.691 494.121 195.691 494.118 195.691 494.116C194.58 486.699 193.367 478.484 192.052 469.47C191.125 477.303 190.119 485.217 189.033 493.211L189.028 493.251L189.023 493.29C188.865 494.55 188.707 495.805 188.548 497.056ZM118.459 346.125C118.424 346.121 118.389 346.117 118.354 346.113C118.319 346.11 118.283 346.107 118.248 346.104L117.607 353.576L118.459 346.125ZM145.439 456.23V470.439L152.939 469.892C152.213 464.943 151.507 460.126 150.82 455.441C148.717 441.092 146.924 428.599 145.439 417.961V456.23ZM280.592 536.664C280.592 536.655 280.592 536.647 280.591 536.638L273.096 536.896L280.593 536.69C280.593 536.681 280.592 536.672 280.592 536.664Z" fill="#F04040" stroke="#353535" stroke-width="15"/>
<path d="M824.99 233.203V233.1L824.987 232.998C824.722 223.319 823.128 214.637 819.969 207.145C817.152 200.184 813.625 193.915 809.353 188.393C805.382 183.103 801.049 178.362 796.347 174.192C792.169 170.371 788.303 166.624 784.744 162.95C781.564 159.43 778.909 155.791 776.753 152.038C775.1 148.86 774.15 144.94 774.15 140.059C774.15 135.119 775.429 131.822 777.392 129.495L777.429 129.451L777.465 129.407C779.525 126.89 781.712 125.484 784.096 124.836C786.665 125.182 789.312 125.771 792.042 126.616C794.645 127.451 797.583 128.692 800.871 130.392L800.963 130.44L801.056 130.485C803.978 131.895 806.811 133.788 809.552 136.213L820.96 146.305L822.004 131.11L824.973 87.8771L825.317 82.8559L820.802 80.6339C812.652 76.624 804.811 73.6385 797.29 71.7529C789.879 69.7722 782.807 68.7305 776.113 68.7305C767.812 68.7305 759.992 70.3551 752.754 73.6844L752.728 73.6965L752.702 73.7088C745.658 77.0153 739.552 81.694 734.423 87.6777L734.389 87.7172L734.356 87.7572C729.359 93.7528 725.538 100.84 722.809 108.891L722.797 108.927L722.785 108.964C720.151 117.004 718.887 125.785 718.887 135.234C718.887 144.988 720.515 154.156 723.861 162.658L723.88 162.707L723.9 162.756C727.186 170.775 731.156 178.135 735.828 184.809L735.857 184.85L735.886 184.89C740.515 191.319 745.306 197.152 750.266 202.373L750.332 202.442L750.4 202.51L750.428 202.539L750.456 202.567L750.485 202.595L750.513 202.623L750.541 202.651L750.569 202.68L750.597 202.708L750.625 202.736L750.654 202.764L750.682 202.792L750.71 202.82L750.738 202.848L750.766 202.876L750.794 202.905L750.822 202.933L750.85 202.961L750.878 202.989L750.906 203.017L750.934 203.045L750.962 203.073L750.99 203.101L751.018 203.128L751.046 203.156L751.074 203.184L751.102 203.212L751.13 203.24L751.157 203.268L751.185 203.296L751.213 203.324L751.241 203.351L751.269 203.379L751.296 203.407L751.324 203.435L751.352 203.462L751.38 203.49L751.407 203.518L751.435 203.546L751.463 203.573L751.49 203.601L751.518 203.629L751.546 203.656L751.573 203.684L751.601 203.711L751.628 203.739L751.656 203.767L751.684 203.794L751.711 203.822L751.739 203.849L751.766 203.877L751.794 203.904L751.821 203.932L751.849 203.959L751.876 203.987L751.904 204.014L751.931 204.041L751.958 204.069L751.986 204.096L752.013 204.124L752.04 204.151L752.068 204.178L752.095 204.206L752.122 204.233L752.15 204.26L752.177 204.288L752.204 204.315L752.232 204.342L752.259 204.369L752.286 204.396L752.313 204.424L752.34 204.451L752.368 204.478L752.395 204.505L752.422 204.532L752.449 204.559L752.476 204.587L752.503 204.614L752.53 204.641L752.557 204.668L752.584 204.695L752.611 204.722L752.638 204.749L752.665 204.776L752.692 204.803L752.719 204.83L752.746 204.857L752.773 204.884L752.8 204.911L752.827 204.938L752.854 204.964L752.881 204.991L752.908 205.018L752.934 205.045L752.961 205.072L752.988 205.099L753.015 205.125L753.042 205.152L753.068 205.179L753.095 205.206L753.122 205.232L753.149 205.259L753.175 205.286L753.202 205.313L753.229 205.339L753.255 205.366L753.282 205.393L753.309 205.419L753.335 205.446L753.362 205.472L753.388 205.499L753.415 205.525L753.442 205.552L753.468 205.579L753.495 205.605L753.521 205.632L753.548 205.658L753.574 205.685L753.6 205.711L753.627 205.737L753.653 205.764L753.68 205.79L753.706 205.817L753.733 205.843L753.759 205.869L753.785 205.896L753.812 205.922L753.838 205.948L753.864 205.975L753.89 206.001L753.917 206.027L753.943 206.053L753.969 206.08L753.995 206.106L754.022 206.132L754.048 206.158L754.074 206.184L754.1 206.211L754.126 206.237L754.152 206.263L754.178 206.289L754.205 206.315L754.231 206.341L754.257 206.367L754.283 206.393L754.309 206.419L754.335 206.445L754.361 206.471L754.387 206.497L754.413 206.523L754.439 206.549L754.465 206.575L754.491 206.601L754.517 206.627L754.542 206.653L754.568 206.679L754.594 206.705L754.62 206.73L754.646 206.756L754.672 206.782L754.697 206.808L754.723 206.834L754.749 206.859L754.775 206.885L754.8 206.911L754.826 206.937L754.852 206.962L754.878 206.988L754.903 207.014L754.929 207.039L754.955 207.065L754.98 207.091L755.006 207.116L755.031 207.142L755.057 207.167L755.083 207.193L755.108 207.219L755.134 207.244L755.159 207.27L755.185 207.295L755.21 207.321L755.236 207.346L755.261 207.372L755.287 207.397L755.312 207.422L755.337 207.448L755.363 207.473L755.388 207.499L755.413 207.524L755.439 207.549L755.464 207.575L755.489 207.6L755.515 207.625L755.54 207.651L755.565 207.676L755.591 207.701L755.616 207.726L755.641 207.752L755.666 207.777L755.691 207.802L755.717 207.827L755.742 207.852L755.767 207.877L755.792 207.903L755.817 207.928L755.842 207.953L755.867 207.978L755.892 208.003L755.917 208.028L755.942 208.053L755.968 208.078L755.993 208.103L756.018 208.128L756.042 208.153L756.067 208.178L756.092 208.203L756.117 208.228L756.142 208.253L756.167 208.278L756.192 208.303L756.217 208.327L756.242 208.352L756.267 208.377L756.291 208.402L756.316 208.427L756.341 208.451L756.366 208.476L756.39 208.501L756.415 208.526L756.44 208.55L756.465 208.575L756.489 208.6L756.514 208.625L756.539 208.649L756.563 208.674L756.588 208.698L756.613 208.723L756.637 208.748L756.662 208.772L756.686 208.797L756.711 208.821L756.735 208.846L756.76 208.87L756.784 208.895L756.809 208.919L756.833 208.944L756.858 208.968L756.882 208.993L756.907 209.017L756.931 209.042L756.956 209.066L756.98 209.09L757.004 209.115L757.029 209.139L757.053 209.163L757.077 209.188L757.102 209.212L757.126 209.236L757.15 209.261L757.174 209.285L757.199 209.309L757.223 209.333L757.247 209.358L757.271 209.382L757.295 209.406L757.32 209.43L757.344 209.454L757.368 209.478L757.392 209.503L757.416 209.527L757.44 209.551L757.464 209.575L757.512 209.623L757.56 209.671L757.584 209.695L757.608 209.719L757.632 209.743L757.656 209.767L757.704 209.815L757.728 209.839L757.752 209.862L757.8 209.91L757.847 209.958L757.895 210.005L757.942 210.053L757.99 210.1L758.014 210.124L758.037 210.148L758.061 210.172L758.085 210.195L758.132 210.242L758.179 210.29L758.203 210.313L758.226 210.337L758.25 210.36L758.273 210.384L758.32 210.431L758.344 210.454L758.367 210.478L758.414 210.525L758.461 210.572L758.485 210.595L758.508 210.618L758.555 210.665L758.601 210.712L758.648 210.758L758.694 210.805L758.741 210.851L758.764 210.875L758.787 210.898L758.811 210.921L758.834 210.944L758.88 210.991L758.926 211.037L758.949 211.06L758.972 211.083L759.019 211.129L759.065 211.175L759.088 211.198L759.111 211.221L759.133 211.244L759.156 211.267L759.202 211.313L759.225 211.336L759.248 211.359L759.294 211.404L759.339 211.45L759.385 211.496L759.431 211.541L759.476 211.587L759.499 211.609L759.522 211.632L759.544 211.655L759.567 211.677L759.612 211.723L759.657 211.768L759.68 211.79L759.703 211.813L759.725 211.836L759.748 211.858L759.793 211.903L759.815 211.926L759.838 211.948L759.86 211.971L759.883 211.993L759.927 212.038L759.972 212.083L759.995 212.105L760.017 212.127L760.062 212.172L760.084 212.194L760.106 212.217L760.151 212.261L760.195 212.306L760.217 212.328L760.24 212.35L760.262 212.372L760.284 212.395L760.328 212.439L760.373 212.483L760.395 212.505L760.417 212.527L760.461 212.571L760.505 212.615L760.527 212.637L760.549 212.659L760.571 212.681L760.593 212.703L760.637 212.747L760.659 212.769L760.68 212.791L760.724 212.835L760.768 212.878L760.811 212.922L760.855 212.966L760.898 213.009L760.92 213.031L760.942 213.052L760.964 213.074L760.985 213.096L761.029 213.139L761.072 213.182L761.093 213.204L761.115 213.225L761.137 213.247L761.158 213.269L761.201 213.312L761.223 213.333L761.244 213.355L761.287 213.398L761.33 213.44L761.351 213.462L761.373 213.483L761.394 213.505L761.415 213.526L761.458 213.569L761.479 213.59L761.501 213.611L761.543 213.654L761.586 213.696L761.607 213.718L761.628 213.739L761.649 213.76L761.671 213.781L761.713 213.823L761.755 213.866L761.776 213.887L761.797 213.908L761.818 213.929L761.839 213.95L761.881 213.992L761.902 214.013L761.923 214.034L761.944 214.055L761.965 214.076L762.007 214.118L762.028 214.139L762.049 214.16L762.091 214.201L762.132 214.243L762.174 214.285L762.216 214.326L762.257 214.368L762.278 214.388L762.299 214.409L762.319 214.43L762.34 214.45L762.381 214.492L762.422 214.533L762.443 214.554L762.464 214.574L762.484 214.595L762.505 214.615L762.546 214.656L762.566 214.677L762.587 214.697L762.607 214.718L762.628 214.738L762.669 214.779L762.689 214.8L762.709 214.82L762.73 214.84L762.75 214.861L762.783 214.893C765.631 217.854 767.569 220.858 768.764 223.892L768.815 224.021L768.871 224.149C770.271 227.349 770.84 230.097 770.84 232.461C770.84 235.435 770.155 237.976 768.859 240.244L768.837 240.283L768.815 240.323C767.987 241.813 766.915 243.058 765.529 244.088C762.543 243.789 759.452 243.247 756.252 242.448C752.883 241.577 749.06 240.237 744.764 238.38C740.891 236.705 736.949 234.297 732.947 231.073L721.272 221.669L720.747 236.651L719.262 278.956L719.142 282.395L721.671 284.73C725.533 288.295 729.883 291.077 734.697 293.032L734.826 293.085L734.956 293.132C739.311 294.716 743.49 295.937 747.484 296.764C752.019 297.725 756.669 298.269 761.426 298.405L761.534 298.408H761.641C768.252 298.408 775.128 297.354 782.238 295.342L782.3 295.324L782.363 295.305C789.874 293.038 796.735 289.354 802.91 284.308C809.43 279.083 814.647 272.305 818.644 264.18C823.009 255.439 824.99 245.002 824.99 233.203Z" fill="#DC327C" stroke="#353535" stroke-width="15"/>
<path d="M716.993 105.919L717.391 97.9054L709.369 98.0481L667.621 98.7902L659.747 98.9302L660.271 106.788C660.639 112.315 661.008 118.275 661.377 124.669C661.622 130.195 661.868 136.463 662.114 143.476C662.358 150.431 662.48 157.764 662.48 165.479C662.48 175.72 662.176 185.899 661.566 196.014L661.564 196.059L661.561 196.104C661.08 206.086 660.063 214.999 658.536 222.868L658.527 222.912L658.519 222.955C657.119 230.658 655.208 236.454 652.981 240.604C651.021 244.258 649.652 244.258 649.202 244.258H649.199C648.365 244.258 647.696 244.055 646.848 243.115C645.552 241.381 644.216 238.681 643.055 234.68C641.846 230.392 640.923 225.227 640.337 219.126C639.744 212.964 639.443 206.279 639.443 199.062C639.443 191.189 639.685 182.871 640.171 174.107C640.783 165.181 641.517 156.317 642.372 147.515C643.353 138.691 644.394 130.052 645.497 121.599C646.728 113.1 647.898 105.219 649.006 97.9572L650.298 89.4847L641.729 89.3274L601.28 88.5852L594.877 88.4678L593.758 94.7738C592.386 102.508 591.016 110.853 589.648 119.807C588.272 128.684 587.024 137.926 585.901 147.532C584.775 157.039 583.838 166.729 583.088 176.6C582.332 186.553 581.953 196.329 581.953 205.928C581.953 217.096 582.588 227.799 583.867 238.03C585.164 248.407 587.387 257.898 590.595 266.452L590.62 266.518L590.646 266.585C594.044 275.147 598.613 282.555 604.435 288.662L604.497 288.727L604.56 288.79C610.878 295.107 618.727 299.158 627.83 301.037L628.58 301.191H629.346C630.224 301.191 632.316 301.031 635.02 300.806C638.94 300.619 643.16 299.591 647.556 298.002C652.592 296.355 657.61 293.688 662.603 290.179C662.811 290.034 663.017 289.885 663.223 289.735V293.32V301.011L670.911 300.818L707.835 299.89L715.384 299.701L715.143 292.153C714.774 280.591 714.528 269.153 714.404 257.84V257.814V257.747V257.681V257.614V257.547V257.481V257.414V257.347V257.281V257.214V257.147V257.08V257.014V256.947V256.88V256.814V256.747V256.68V256.613V256.547V256.48V256.413V256.346V256.28V256.213V256.146V256.079V256.013V255.946V255.879V255.812V255.746V255.679V255.612V255.545V255.479V255.412V255.345V255.278V255.211V255.145V255.078V255.011V254.944V254.877V254.811V254.744V254.677V254.61V254.543V254.476V254.41V254.343V254.276V254.209V254.142V254.075V254.009V253.942V253.875V253.808V253.741V253.674V253.607V253.541V253.474V253.407V253.34V253.273V253.206V253.139V253.072V253.006V252.939V252.872V252.805V252.738V252.671V252.604V252.537V252.47V252.404V252.337V252.27V252.203V252.136V252.069V252.002V251.935V251.868V251.801V251.734V251.667V251.6V251.533V251.466V251.399V251.333V251.266V251.199V251.132V251.065V250.998V250.931V250.864V250.797V250.73V250.663V250.596V250.529V250.462V250.395V250.328V250.261V250.194V250.127V250.06V249.993V249.926V249.859V249.792V249.725V249.658V249.591V249.524V249.457V249.39V249.323V249.255V249.188V249.121V249.054V248.987V248.92V248.853V248.786V248.719V248.652V248.585V248.518V248.451V248.384V248.317V248.249V248.182V248.115V248.048V247.981V247.914V247.847V247.78V247.713V247.646V247.578V247.511V247.444V247.377V247.31V247.243V247.176V247.109V247.041V246.974V246.907V246.84V246.773V246.706V246.639V246.571V246.504V246.437V246.37V246.303V246.236V246.168V246.101V246.034V245.967V245.9V245.832V245.765V245.698V245.631V245.564V245.496V245.429V245.362V245.295V245.228V245.16V245.093V245.026V244.959V244.891V244.824V244.757V244.69V244.623V244.555V244.488V244.421V244.354V244.286V244.219V244.152V244.085V244.017V243.95V243.883V243.815V243.748V243.681V243.614V243.546V243.479V243.412V243.344V243.277V243.21V243.143V243.075V243.008V242.941V242.873V242.806V242.739V242.671V242.604V242.537V242.469V242.402V242.335V242.267V242.2V242.133V242.065V241.998V241.931V241.863V241.796V241.729V241.661V241.594V241.526V241.459V241.392V241.324V241.257V241.19V241.122V241.055V240.987V240.92V240.853V240.785V240.718V240.65V240.583V240.516V240.448V240.381V240.313V240.246V240.178V240.111V240.044V239.976V239.909V239.841V239.774V239.706V239.639V239.571V239.504V239.437V239.369V239.302V239.234V239.167V239.099V239.032V238.964V238.897V238.829V238.762V238.694V238.627V238.559V238.492V238.424V238.357V238.289V238.222V238.154V238.087V238.019V237.952V237.884V237.817V237.749V237.682V237.614V237.547V237.479V237.411V237.344V237.276V237.209V237.141V237.074V237.006V236.939V236.871V236.803V236.736V236.668V236.601V236.533V236.466V236.398V236.33V236.263V236.195V236.128V236.06V235.992V235.925V235.857V235.79V235.722V235.654V235.587V235.519V235.452V235.384V235.316V235.249V235.181V235.113V235.046V234.978V234.91V234.843V234.775V234.707V234.64V234.572V234.504V234.437V234.369V234.301V234.234V234.166V234.098V234.031V233.963V233.895V233.828V233.76V233.692V233.625V233.557V233.489V233.421V233.354V233.286V233.218V233.151V233.083V233.015V232.947V232.88V232.812V232.744V232.676V232.609V232.541V232.473V232.405V232.338V232.27V232.202V232.134V232.067V231.999V231.931V231.863V231.796V231.728V231.66V231.592V231.524V231.457V231.389V231.321V231.253V231.185V231.118V231.05V230.982V230.914V230.846V230.779V230.711V230.643V230.575V230.507V230.439V230.372V230.304V230.236V230.168V230.1V230.032V229.964V229.897V229.829V229.761V229.693V229.625V229.557V229.489V229.422V229.354V229.286V229.218V229.15V229.082V229.014V228.946V228.878V228.811V228.743V228.675V228.607V228.539V228.471V228.403V228.335V228.267V228.199V228.131V228.063V227.995V227.928V227.86V227.792V227.724V227.656V227.588V227.52V227.452V227.384V227.316V227.248V227.18V227.112V227.044V226.976V226.908V226.84V226.772V226.704V226.636V226.568V226.5V226.432V226.364V226.296V226.228V226.16V226.092V226.024V225.956V225.888V225.82V225.752V225.684V225.616V225.548V225.48V225.412V225.344V225.276V225.208V225.14V225.072V225.003V224.935V224.867V224.799V224.731V224.663V224.595V224.527V224.459V224.391V224.323V224.255V224.187V224.118V224.05V223.982V223.914V223.846V223.778V223.71V223.642V223.574V223.505V223.437V223.369C714.404 203.748 714.589 184.252 714.96 164.88L714.96 164.879C715.329 145.413 716.007 125.759 716.993 105.919Z" fill="#9951FF" stroke="#353535" stroke-width="15"/>
<path d="M500.147 300.433L500.168 300.438L500.189 300.443C505.592 301.69 511.169 302.305 516.904 302.305C522.763 302.305 528.504 301.536 534.108 299.995C540.059 298.359 545.524 295.54 550.473 291.619C555.579 287.67 560.02 282.607 563.855 276.584C567.911 270.285 571.193 262.685 573.807 253.937C576.566 244.995 578.618 234.648 580.015 222.961C581.42 211.21 582.109 197.665 582.109 182.363C582.109 167.047 581.357 153.646 579.816 142.211C578.29 130.895 576.164 121.062 573.369 112.807C570.607 104.523 567.198 97.4392 563.001 91.7943C558.995 86.4069 554.484 81.9736 549.41 78.6823C544.549 75.4493 539.262 73.2762 533.594 72.2159C528.545 71.1321 523.474 70.5859 518.389 70.5859C510.069 70.5859 502.006 72.4555 494.266 76.1062C485.821 79.9599 478.781 86.8134 472.94 95.9081C466.979 105.066 462.395 117.171 458.949 131.85L458.941 131.88L458.935 131.911C455.55 146.883 453.926 165.737 453.926 188.301C453.926 203.337 454.551 216.555 455.828 227.918L455.833 227.959L455.838 228C457.233 239.29 459.157 249.181 461.658 257.603C464.148 265.99 467.259 273.214 471.119 279.076L471.154 279.129L471.189 279.181C475.036 284.813 479.381 289.507 484.29 293.077C489.139 296.604 494.436 299.08 500.147 300.433ZM525.965 155.558L525.967 155.572C526.787 162.722 527.217 172.119 527.217 183.848C527.217 207.627 525.971 224.512 523.681 234.933C522.532 240.158 521.194 243.261 520.047 244.892C519.543 245.609 519.199 245.863 519.098 245.928C518.591 245.921 517.809 245.766 516.626 244.794C515.752 243.983 514.356 242.014 512.85 237.957C511.479 233.806 510.274 228.032 509.325 220.461C508.503 212.793 508.076 203.023 508.076 191.084C508.076 179.22 508.444 169.315 509.16 161.323L509.16 161.313C509.88 153.161 510.877 146.763 512.09 141.996C513.457 137.123 514.858 134.624 515.814 133.556L515.877 133.485L515.939 133.412C516.842 132.35 517.327 132.344 517.646 132.344C518.202 132.344 518.839 132.486 519.744 133.231L519.848 133.317L519.956 133.399C520.255 133.628 521.446 134.911 522.777 138.905C524.025 142.647 525.126 148.123 525.965 155.558Z" fill="#1C64FF" stroke="#353535" stroke-width="15"/>
<path d="M453.601 87.2931L452.553 96.8973C451.825 103.574 451.216 110.758 450.727 118.454C450.236 126.195 449.805 134.249 449.436 142.616L449.436 142.621C449.068 150.829 448.823 159.226 448.7 167.812L448.7 167.814C448.577 176.314 448.516 184.689 448.516 192.939C448.516 202.537 448.577 211.825 448.7 220.802C448.946 229.653 449.192 237.828 449.437 245.327C449.804 252.787 450.171 259.382 450.536 265.117C451.021 270.797 451.549 274.982 452.092 277.802L453.806 286.719H444.727C439.912 286.719 434.904 286.839 429.702 287.08C425.166 287.326 420.071 287.633 414.414 288.002C408.886 288.362 403.357 288.903 397.826 289.625L388.505 290.84L389.389 281.482C391.481 259.325 392.893 239.114 393.629 220.843L453.601 87.2931ZM453.601 87.2931L444.037 88.6594M453.601 87.2931L444.037 88.6594M444.037 88.6594C443.659 88.7133 442.935 88.7695 441.758 88.7695H441.342L440.93 88.8154C440.181 88.8986 439.115 88.9551 437.676 88.9551H437.666H437.657H437.647H437.638H437.629H437.619H437.61H437.6H437.591H437.581H437.572H437.562H437.553H437.543H437.534H437.524H437.515H437.505H437.496H437.486H437.477H437.467H437.458H437.448H437.439H437.429H437.42H437.41H437.401H437.391H437.382H437.372H437.363H437.353H437.343H437.334H437.324H437.315H437.305H437.295H437.286H437.276H437.267H437.257H437.247H437.238H437.228H437.219H437.209H437.199H437.19H437.18H437.17H437.161H437.151H437.141H437.132H437.122H437.112H437.103H437.093H437.083H437.074H437.064H437.054H437.045H437.035H437.025H437.016H437.006H436.996H436.986H436.977H436.967H436.957H436.947H436.938H436.928H436.918H436.908H436.899H436.889H436.879H436.869H436.86H436.85H436.84H436.83H436.82H436.811H436.801H436.791H436.781H436.771H436.761H436.752H436.742H436.732H436.722H436.712H436.702H436.693H436.683H436.673H436.663H436.653H436.643H436.633H436.624H436.614H436.604H436.594H436.584H436.574H436.564H436.554H436.544H436.534H436.524H436.515H436.505H436.495H436.485H436.475H436.465H436.455H436.445H436.435H436.425H436.415H436.405H436.395H436.385H436.375H436.365H436.355H436.345H436.335H436.325H436.315H436.305H436.295H436.285H436.275H436.265H436.255H436.245H436.235H436.225H436.215H436.205H436.195H436.184H436.174H436.164H436.154H436.144H436.134H436.124H436.114H436.104H436.094H436.084H436.073H436.063H436.053H436.043H436.033H436.023H436.013H436.002H435.992H435.982H435.972H435.962H435.952H435.942H435.931H435.921H435.911H435.901H435.891H435.88H435.87H435.86H435.85H435.84H435.829H435.819H435.809H435.799H435.788H435.778H435.768H435.758H435.747H435.737H435.727H435.717H435.706H435.696H435.686H435.676H435.665H435.655H435.645H435.634H435.624H435.614H435.603H435.593H435.583H435.572H435.562H435.552H435.541H435.531H435.521H435.51H435.5H435.49H435.479H435.469H435.459H435.448H435.438H435.428H435.417H435.407H435.396H435.386H435.376H435.365H435.355H435.344H435.334H435.323H435.313H435.303H435.292H435.282H435.271H435.261H435.25H435.24H435.229H435.219H435.208H435.198H435.187H435.177H435.167H435.156H435.146H435.135H435.125H435.114H435.103H435.093H435.082H435.072H435.061H435.051H435.04H435.03H435.019H435.009H434.998H434.988H434.977H434.966H434.956H434.945H434.935H434.924H434.913H434.903H434.892H434.882H434.871H434.86H434.85H434.839H434.829H434.818H434.807H434.797H434.786H434.775H434.765H434.754H434.743H434.733H434.722H434.711H434.701H434.69H434.679H434.669H434.658H434.647H434.637H434.626H434.615H434.604H434.594H434.583H434.572H434.562H434.551H434.54H434.529H434.519H434.508H434.497H434.486H434.476H434.465H434.454H434.443H434.432H434.422H434.411H434.4H434.389H434.378H434.368H434.357H434.346H434.335H434.324H434.314H434.303H434.292H434.281H434.27H434.259H434.248H434.238H434.227H434.216H434.205H434.194H434.183H434.172H434.161H434.151H434.14H434.129H434.118H434.107H434.096H434.085H434.074H434.063H434.052H434.041H434.03H434.02H434.009H433.998H433.987H433.976H433.965H433.954H433.943H433.932H433.921H433.91H433.899H433.888H433.877H433.866H433.855H433.844H433.833H433.822H433.811H433.8H433.789H433.778H433.767H433.756H433.745H433.733H433.722H433.711H433.7H433.689H433.678H433.667H433.656H433.645H433.634H433.623H433.612H433.6H433.589H433.578H433.567H433.556H433.545H433.534H433.523H433.511H433.5H433.489H433.478H433.467H433.456H433.445H433.433H433.422H433.411H433.4H433.389H433.377H433.366H433.355H433.344H433.333H433.321H433.31H433.299H433.288H433.277H433.265H433.254H433.243H433.232H433.22H433.209H433.198H433.187H433.175H433.164H433.153H433.141H433.13H433.119H433.108H433.096H433.085H433.074H433.062H433.051H433.04H433.028H433.017H433.006H432.994H432.983H432.972H432.96H432.949H432.938H432.926H432.915H432.904H432.892H432.881H432.869H432.858H432.847H432.835H432.824H432.812H432.801H432.79H432.778H432.767H432.755H432.744H432.733H432.721H432.71H432.698H432.687H432.675H432.664H432.652H432.641H432.629H432.618H432.606H432.595H432.584H432.572H432.561H432.549H432.538H432.526H432.514H432.503H432.491H432.48H432.468H432.457H432.445H432.434H432.422H432.411H432.399H432.388H432.376H432.364H432.353H432.341H432.33H432.318H432.307H432.295C428.228 88.9551 423.331 88.8353 417.588 88.5909C412.14 88.3539 406.038 87.8179 399.27 86.972L389.591 85.762L390.909 95.4274C391.619 100.64 392.223 107.009 392.711 114.565L392.714 114.606L392.717 114.646C393.202 121.081 393.631 129.025 394 138.495L394.002 138.546M444.037 88.6594L394.002 138.546M394.002 138.546L394.005 138.597M394.002 138.546L394.005 138.597M394.005 138.597C394.491 147.832 394.736 158.704 394.736 171.23C394.736 185.828 394.368 202.362 393.629 220.841L394.005 138.597ZM461.375 55.5439L461.392 55.5003L461.408 55.4564C462.977 51.2209 463.73 46.7451 463.73 42.0898C463.73 37.5877 462.986 33.2579 461.435 29.165C459.962 24.8246 457.592 20.9903 454.364 17.7424C451.102 14.3331 447.008 11.8754 442.362 10.2075C437.559 8.31239 432.09 7.5 426.172 7.5C420.226 7.5 414.72 8.32022 409.834 10.1937C405.16 11.8661 401.033 14.3173 397.675 17.6752L397.607 17.7432L397.541 17.8129C394.419 21.0991 392.132 24.9543 390.682 29.2864C389.281 33.3478 388.613 37.634 388.613 42.0898C388.613 46.5738 389.193 50.8849 390.407 54.9822L390.455 55.1447L390.51 55.3049C391.975 59.5353 394.27 63.3045 397.355 66.5523L397.488 66.6918L397.627 66.8242C400.952 69.9829 404.967 72.3367 409.488 73.9947L409.525 74.0082L409.562 74.0213C414.438 75.7515 420.043 76.4941 426.172 76.4941C431.872 76.4941 437.165 75.7348 441.89 74.0084C446.513 72.3634 450.615 70.0153 453.974 66.8242L454.044 66.758L454.112 66.69C457.316 63.4858 459.755 59.7549 461.375 55.5439Z" fill="#12DADA" stroke="#353535" stroke-width="15"/>
<path d="M385.767 181.795L391.719 180.865L392.095 174.853C392.343 170.88 392.591 166.423 392.838 161.486C393.219 156.242 393.408 150.769 393.408 145.068C393.408 137.73 392.959 130.165 392.067 122.379C391.272 114.333 389.675 106.827 387.229 99.8964C384.708 92.7548 381.092 86.6123 376.222 81.7289C370.695 76.0523 363.552 73.3691 355.479 73.3691C352.976 73.3691 349.689 73.7667 345.896 74.3989L345.875 74.4024L345.855 74.4059C341.267 75.197 336.494 77.0204 331.602 79.599C326.332 82.3161 321.293 86.3701 316.45 91.4825L316.446 91.4866C316.307 91.6338 316.168 91.7822 316.03 91.9319L315.545 86.4474L308.227 86.9303L271.674 89.3424L264.265 89.8314L264.68 97.2455C265.542 112.65 266.344 130.228 267.085 149.984C267.702 166.878 268.257 187.307 268.752 211.278L268.752 211.297L268.753 211.317C269.369 235.113 269.678 261.889 269.678 291.65V299.688L277.696 299.132L320.557 296.164L327.793 295.663L327.534 288.415L324.937 215.495L324.935 215.45L324.933 215.405C324.688 210.269 324.505 205.133 324.383 199.997C324.26 194.861 324.199 189.726 324.199 184.59C324.199 177.461 324.441 170.527 324.922 163.786C325.393 157.195 326.266 151.53 327.491 146.742L327.496 146.722L327.501 146.702C328.701 141.901 330.267 138.618 331.921 136.467L331.963 136.413L332.003 136.359C333.056 134.937 334.017 134.459 335.293 134.393C335.498 134.436 335.799 134.507 336.213 134.617C336.363 134.743 336.632 135.001 337.005 135.466C337.595 136.204 338.555 137.962 339.555 141.407L339.596 141.549L339.643 141.688C340.507 144.28 341.113 148.543 341.113 154.902C341.113 158.423 340.886 162.423 340.412 166.92L340.403 167.009L340.396 167.099C340.055 171.301 339.304 176.38 338.105 182.377L335.547 195.165L347.887 190.944C352.42 189.393 356.947 188.023 361.469 186.833C366.063 185.624 370.119 184.672 373.649 183.966C377.884 183.119 381.924 182.395 385.767 181.795Z" fill="#F3EE48" stroke="#353535" stroke-width="15"/>
<path d="M260.176 105.919L260.575 97.9054L252.552 98.0481L210.804 98.7902L202.93 98.9302L203.454 106.788C203.823 112.315 204.191 118.275 204.56 124.669C204.806 130.195 205.052 136.463 205.298 143.476C205.542 150.431 205.664 157.764 205.664 165.479C205.664 175.72 205.359 185.899 204.75 196.014L204.747 196.059L204.745 196.104C204.264 206.086 203.246 214.999 201.719 222.868L201.711 222.912L201.703 222.955C200.302 230.658 198.392 236.454 196.165 240.604C194.204 244.258 192.836 244.258 192.386 244.258H192.383C191.549 244.258 190.879 244.055 190.031 243.115C188.736 241.381 187.4 238.681 186.238 234.68C185.03 230.392 184.107 225.227 183.52 219.126C182.928 212.964 182.627 206.279 182.627 199.062C182.627 191.189 182.869 182.871 183.355 174.107C183.967 165.181 184.7 156.317 185.556 147.515C186.536 138.691 187.578 130.052 188.68 121.599C189.912 113.1 191.082 105.219 192.19 97.9572L193.482 89.4847L184.913 89.3274L144.464 88.5852L138.06 88.4678L136.941 94.7738C135.569 102.508 134.199 110.853 132.831 119.807C131.456 128.684 130.207 137.926 129.085 147.532C127.959 157.039 127.021 166.729 126.272 176.6C125.516 186.553 125.137 196.329 125.137 205.928C125.137 217.096 125.771 227.799 127.05 238.03C128.347 248.407 130.571 257.898 133.778 266.452L133.803 266.518L133.83 266.585C137.227 275.147 141.796 282.555 147.619 288.662L147.68 288.727L147.744 288.79C154.061 295.107 161.91 299.158 171.014 301.037L171.764 301.191H172.529C173.408 301.191 175.5 301.031 178.204 300.806C182.124 300.619 186.344 299.591 190.74 298.002C195.776 296.355 200.794 293.688 205.787 290.179C205.994 290.034 206.201 289.885 206.406 289.735V293.32V301.011L214.095 300.818L251.018 299.89L258.567 299.701L258.326 292.153C257.957 280.591 257.711 269.153 257.588 257.84V257.814V257.747V257.681V257.614V257.547V257.481V257.414V257.347V257.281V257.214V257.147V257.08V257.014V256.947V256.88V256.814V256.747V256.68V256.613V256.547V256.48V256.413V256.346V256.28V256.213V256.146V256.079V256.013V255.946V255.879V255.812V255.746V255.679V255.612V255.545V255.479V255.412V255.345V255.278V255.211V255.145V255.078V255.011V254.944V254.877V254.811V254.744V254.677V254.61V254.543V254.476V254.41V254.343V254.276V254.209V254.142V254.075V254.009V253.942V253.875V253.808V253.741V253.674V253.607V253.541V253.474V253.407V253.34V253.273V253.206V253.139V253.072V253.006V252.939V252.872V252.805V252.738V252.671V252.604V252.537V252.47V252.404V252.337V252.27V252.203V252.136V252.069V252.002V251.935V251.868V251.801V251.734V251.667V251.6V251.533V251.466V251.399V251.333V251.266V251.199V251.132V251.065V250.998V250.931V250.864V250.797V250.73V250.663V250.596V250.529V250.462V250.395V250.328V250.261V250.194V250.127V250.06V249.993V249.926V249.859V249.792V249.725V249.658V249.591V249.524V249.457V249.39V249.323V249.255V249.188V249.121V249.054V248.987V248.92V248.853V248.786V248.719V248.652V248.585V248.518V248.451V248.384V248.317V248.249V248.182V248.115V248.048V247.981V247.914V247.847V247.78V247.713V247.646V247.578V247.511V247.444V247.377V247.31V247.243V247.176V247.109V247.041V246.974V246.907V246.84V246.773V246.706V246.639V246.571V246.504V246.437V246.37V246.303V246.236V246.168V246.101V246.034V245.967V245.9V245.832V245.765V245.698V245.631V245.564V245.496V245.429V245.362V245.295V245.228V245.16V245.093V245.026V244.959V244.891V244.824V244.757V244.69V244.623V244.555V244.488V244.421V244.354V244.286V244.219V244.152V244.085V244.017V243.95V243.883V243.815V243.748V243.681V243.614V243.546V243.479V243.412V243.344V243.277V243.21V243.143V243.075V243.008V242.941V242.873V242.806V242.739V242.671V242.604V242.537V242.469V242.402V242.335V242.267V242.2V242.133V242.065V241.998V241.931V241.863V241.796V241.729V241.661V241.594V241.526V241.459V241.392V241.324V241.257V241.19V241.122V241.055V240.987V240.92V240.853V240.785V240.718V240.65V240.583V240.516V240.448V240.381V240.313V240.246V240.178V240.111V240.044V239.976V239.909V239.841V239.774V239.706V239.639V239.571V239.504V239.437V239.369V239.302V239.234V239.167V239.099V239.032V238.964V238.897V238.829V238.762V238.694V238.627V238.559V238.492V238.424V238.357V238.289V238.222V238.154V238.087V238.019V237.952V237.884V237.817V237.749V237.682V237.614V237.547V237.479V237.411V237.344V237.276V237.209V237.141V237.074V237.006V236.939V236.871V236.803V236.736V236.668V236.601V236.533V236.466V236.398V236.33V236.263V236.195V236.128V236.06V235.992V235.925V235.857V235.79V235.722V235.654V235.587V235.519V235.452V235.384V235.316V235.249V235.181V235.113V235.046V234.978V234.91V234.843V234.775V234.707V234.64V234.572V234.504V234.437V234.369V234.301V234.234V234.166V234.098V234.031V233.963V233.895V233.828V233.76V233.692V233.625V233.557V233.489V233.421V233.354V233.286V233.218V233.151V233.083V233.015V232.947V232.88V232.812V232.744V232.676V232.609V232.541V232.473V232.405V232.338V232.27V232.202V232.134V232.067V231.999V231.931V231.863V231.796V231.728V231.66V231.592V231.524V231.457V231.389V231.321V231.253V231.185V231.118V231.05V230.982V230.914V230.846V230.779V230.711V230.643V230.575V230.507V230.439V230.372V230.304V230.236V230.168V230.1V230.032V229.964V229.897V229.829V229.761V229.693V229.625V229.557V229.489V229.422V229.354V229.286V229.218V229.15V229.082V229.014V228.946V228.878V228.811V228.743V228.675V228.607V228.539V228.471V228.403V228.335V228.267V228.199V228.131V228.063V227.995V227.928V227.86V227.792V227.724V227.656V227.588V227.52V227.452V227.384V227.316V227.248V227.18V227.112V227.044V226.976V226.908V226.84V226.772V226.704V226.636V226.568V226.5V226.432V226.364V226.296V226.228V226.16V226.092V226.024V225.956V225.888V225.82V225.752V225.684V225.616V225.548V225.48V225.412V225.344V225.276V225.208V225.14V225.072V225.003V224.935V224.867V224.799V224.731V224.663V224.595V224.527V224.459V224.391V224.323V224.255V224.187V224.118V224.05V223.982V223.914V223.846V223.778V223.71V223.642V223.574V223.505V223.437V223.369C257.588 203.748 257.773 184.252 258.143 164.88L258.143 164.879C258.513 145.413 259.19 125.759 260.176 105.919Z" fill="#F04040" stroke="#353535" stroke-width="15"/>
<path d="M127.616 290.853L132.918 288.406L131.845 282.665L124.98 245.927L123.103 235.883L114.084 240.684C107.005 244.452 101.509 245.928 97.3828 245.928C93.4351 245.928 90.2215 244.946 87.4851 243.134C84.4262 241.022 81.638 238.175 79.1568 234.462C76.5471 230.432 74.2701 225.847 72.3515 220.674C70.4736 215.146 68.8866 209.498 67.5913 203.728L67.5885 203.716L67.5857 203.703C64.5157 190.243 62.7643 174.735 62.3942 157.128C62.7643 139.378 64.4574 123.722 67.4167 110.109L67.4269 110.062L67.4364 110.015C68.6056 104.286 70.1233 98.6776 71.989 93.1878C73.9239 87.8507 76.1592 83.1809 78.6651 79.1388C81.1598 75.3074 83.9463 72.4315 86.9736 70.3502L86.9934 70.3366L87.0131 70.3229C89.7792 68.395 92.907 67.4023 96.6406 67.4023C98.5621 67.4023 100.698 67.7077 103.076 68.4012L103.25 68.4518L103.425 68.4941C105.858 69.0779 108.597 70.0908 111.656 71.6203L121.395 76.4899L122.473 65.6547L126.184 28.3598L126.56 24.5821L123.738 22.0425C120.523 19.1488 116.798 16.9477 112.65 15.4055C109.121 14.0504 105.653 13.0048 102.252 12.2963L102.147 12.2744L102.041 12.2555C98.2203 11.5732 94.3406 11.1656 90.405 11.0298L90.2758 11.0254H90.1465C85.4193 11.0254 80.1485 11.9275 74.4564 13.5123C68.2698 15.1416 62.1361 18.1606 56.0654 22.3365C49.7734 26.5395 43.7608 32.2025 37.9892 39.1546L37.9846 39.1602L37.9799 39.1658C32.082 46.2982 26.9163 55.2579 22.3892 65.8644L22.3803 65.8851L22.3716 65.9058C17.9136 76.5264 14.3225 89.1112 11.5324 103.569L11.5263 103.6L11.5206 103.632C8.81904 118.297 7.5 135.285 7.5 154.531C7.5 173.732 8.62817 190.711 10.9301 205.418C13.2088 219.976 16.2768 232.712 20.1927 243.546L20.1977 243.559L20.2027 243.573C24.079 254.168 28.6274 263.275 33.9308 270.754L33.9497 270.781L33.9687 270.807C39.1171 277.936 44.6215 283.835 50.5328 288.339L50.5783 288.373L50.6242 288.407C56.3455 292.63 62.2075 295.783 68.2117 297.686L68.2363 297.694L68.2609 297.702C74.0216 299.485 79.6015 300.449 84.9512 300.449H85.0648L85.1783 300.446C89.5581 300.313 94.0426 299.916 98.629 299.261L98.7153 299.248L98.8014 299.234C102.77 298.572 107.178 297.597 112.006 296.329C117.208 295.09 122.413 293.254 127.616 290.853Z" fill="#37A970" stroke="#353535" stroke-width="15"/>
</svg>
